<?xml version="1.0" encoding="UTF-8" standalone="no"?>
<svg
   xmlns:dc="http://purl.org/dc/elements/1.1/"
   xmlns:cc="http://creativecommons.org/ns#"
   xmlns:rdf="http://www.w3.org/1999/02/22-rdf-syntax-ns#"
   xmlns:svg="http://www.w3.org/2000/svg"
   xmlns="http://www.w3.org/2000/svg"
   viewBox="0 0 960.58667 597.59998"
   height="597.59998"
   width="960.58667"
   xml:space="preserve"
   id="svg2"
   version="1.1"><metadata
     id="metadata8"><rdf:RDF><cc:Work
         rdf:about=""><dc:format>image/svg+xml</dc:format><dc:type
           rdf:resource="http://purl.org/dc/dcmitype/StillImage" /></cc:Work></rdf:RDF></metadata><defs
     id="defs6" /><g
     transform="matrix(1.3333333,0,0,-1.3333333,0,597.6)"
     id="g10"><g
       transform="scale(0.1)"
       id="g12"><path
         id="path14"
         style="fill:#6ccb94;fill-opacity:1;fill-rule:nonzero;stroke:none"
         d="m 6870.32,3452.21 c -184.49,257.59 -422.74,459.56 -690.6,595.66 -368.58,187.27 -951.38,441.7 -1384.46,433.95 C 4112.16,4469.58 2574.75,3630.59 1771.59,3470.99 968.43,3311.39 -212.688,2715.54 32.9844,1502.55 278.656,289.551 930.633,-72.2188 2177.89,87.3906 3425.15,246.992 3869.25,406.602 4880.29,204.43 5891.33,2.26172 7053.55,140.59 7176.39,1587.66 c 89.93,1059.47 -43,1497.25 -306.07,1864.55" /><path
         id="path16"
         style="fill:#ccedd5;fill-opacity:1;fill-rule:nonzero;stroke:none"
         d="M 1668.12,51.8516 C 748.578,51.8516 242.715,467.012 32.9844,1502.55 10.5508,1613.3 0.015625,1718.91 0,1819.52 c -0.148438,1001.19 1041.77,1506.44 1771.59,1651.47 803.16,159.6 2340.57,998.59 3023.67,1010.83 6.47,0.11 12.95,0.17 19.49,0.17 430.94,0 1001.9,-249.65 1364.97,-434.12 267.86,-136.1 506.11,-338.07 690.6,-595.66 207.58,-289.82 334.13,-623.53 334.1,-1271.91 -0.01,-173.34 -9.06,-369.15 -28.03,-592.64 C 7081.18,466.059 6361.61,130.691 5571.94,130.711 c -229.14,0 -464.25,28.25 -691.65,73.719 -339.52,67.89 -615.04,94.98 -878.58,94.98 -521.24,0 -995.41,-106.019 -1823.82,-212.0194 -182.47,-23.3515 -352.19,-35.539 -509.77,-35.539" /><path
         id="path18"
         style="fill:#17282f;fill-opacity:1;fill-rule:nonzero;stroke:none"
         d="m 673.316,2514.99 c -89.828,76.01 -41.461,407.69 0,449.15 30.758,30.75 103.305,8.28 138.735,-5.37 l 37.078,-473.01 c -46.316,-11.7 -119.266,-18.61 -175.813,29.23 z m 103.649,891.38 26.914,-328.61 c 0,0 -234.211,38.4 -296.402,-85.98 -62.188,-124.38 -62.188,-449.15 82.921,-621.89 104.543,-124.46 216.243,-73.18 270.536,-34.78 l 28.144,-359.09 c 0,-134.15 257.632,-381.09 575.422,-381.09 317.8,0 575.43,246.94 575.43,381.09 l 112.11,1430.35 H 776.965" /><path
         id="path20"
         style="fill:#17282f;fill-opacity:1;fill-rule:nonzero;stroke:none"
         d="m 673.316,2514.99 3.231,3.82 c -17.402,14.66 -29.91,40.55 -37.777,73.01 -7.903,32.42 -11.262,71.22 -11.258,111.32 -0.004,56.35 6.613,115.29 16.218,162.98 4.801,23.85 10.356,44.89 16.145,61.31 5.723,16.41 11.977,28.28 16.977,33.17 9.867,9.93 25.394,13.97 43.425,13.96 30.918,0.04 67.875,-11.91 89.977,-20.46 l 1.797,4.67 -4.985,-0.39 37.075,-473.01 4.988,0.39 -1.227,4.85 c -18.109,-4.58 -40.339,-8.39 -63.922,-8.39 -35.792,0.01 -74.484,8.72 -107.433,36.59 l -3.231,-3.82 -3.23,-3.81 c 35.191,-29.79 76.551,-38.98 113.894,-38.96 24.661,0 47.661,3.97 66.372,8.69 l 4.089,1.03 -37.652,480.36 -2.937,1.13 c -22.704,8.72 -60.227,21.09 -93.575,21.13 -19.347,-0.01 -37.742,-4.2 -50.496,-16.89 -7.109,-7.22 -13.261,-19.84 -19.34,-36.91 -17.964,-51.08 -32.902,-141.89 -32.929,-227.62 0.004,-40.66 3.375,-80.13 11.539,-113.69 8.195,-33.53 21.094,-61.33 41.035,-78.27 z m 103.649,891.38 -4.985,-0.4 26.915,-328.62 4.984,0.41 0.809,4.93 c -0.18,0.03 -34.54,5.66 -80.614,5.66 -37.308,-0.01 -82.297,-3.67 -123.183,-17.2 -40.832,-13.51 -77.868,-37.11 -97.887,-77.13 -25.149,-50.41 -39.965,-131.45 -40,-222.15 v 0 c 0.055,-138.47 34.723,-299.3 123.562,-405.2 50.368,-60.07 103.387,-80.46 150.832,-80.4 52.36,0.04 97.465,24.31 126.422,44.76 l -2.886,4.08 -4.985,-0.39 28.145,-359.09 4.984,0.39 h -5 c 0.051,-35.14 16.656,-76.43 46.11,-118.99 44.23,-63.79 117.702,-130.42 210.182,-181.27 92.47,-50.83 203.98,-85.83 324.13,-85.83 160.22,0.02 305.02,62.19 409.9,141.25 52.45,39.54 94.93,83.31 124.42,125.85 29.45,42.56 46.06,83.85 46.11,118.99 h -5 l 4.98,-0.39 112.54,1435.74 H 771.539 l 0.441,-5.4 4.985,0.4 v -5 H 2146.63 l -111.7,-1425.15 v -0.2 c 0.05,-31.93 -15.55,-71.81 -44.33,-113.29 -43.13,-62.25 -115.58,-128.09 -206.78,-178.21 -91.21,-50.14 -201.12,-84.59 -319.32,-84.59 -157.58,-0.02 -300.49,61.28 -403.87,139.23 -51.69,38.96 -93.474,82.08 -122.224,123.57 -28.781,41.48 -44.379,81.36 -44.328,113.29 v 0.2 l -28.848,368.06 -7.183,-5.08 c -28.012,-19.84 -71.477,-42.96 -120.649,-42.93 -44.539,0.07 -94.144,18.58 -143.171,76.83 -86.555,102.91 -121.278,261.92 -121.223,398.77 -0.039,89.55 14.887,169.66 38.945,217.67 18.43,36.87 52.715,59.06 92.086,72.12 39.313,13.03 83.399,16.7 120.039,16.69 22.629,0 42.426,-1.38 56.539,-2.77 7.059,-0.69 12.692,-1.39 16.555,-1.9 3.859,-0.52 5.895,-0.86 5.902,-0.86 l 6.313,-1.03 -27.438,334.99 -4.98,-0.41 v -5 5" /><path
         id="path22"
         style="fill:#ffffff;fill-opacity:1;fill-rule:nonzero;stroke:none"
         d="m 2152.04,3406.37 c 0,-160.28 -307.82,-290.21 -687.54,-290.21 -379.71,0 -687.535,129.93 -687.535,290.21 0,160.29 307.825,290.22 687.535,290.22 379.72,0 687.54,-129.93 687.54,-290.22" /><path
         id="path24"
         style="fill:#17282f;fill-opacity:1;fill-rule:nonzero;stroke:none"
         d="m 2152.04,3406.37 h -5 c 0,-38.4 -18.39,-75.29 -52.56,-109.42 -51.2,-51.15 -137.73,-95.3 -246.94,-126.42 -109.21,-31.14 -241.07,-49.37 -383.04,-49.37 -189.28,-0.01 -360.63,32.42 -484.215,84.61 -61.797,26.07 -111.617,57.09 -145.758,91.18 -34.168,34.13 -52.558,71.02 -52.562,109.42 0.004,38.41 18.394,75.3 52.562,109.43 51.203,51.15 137.727,95.3 246.933,126.42 109.21,31.14 241.08,49.37 383.04,49.37 189.28,0.01 360.63,-32.43 484.22,-84.61 61.8,-26.07 111.62,-57.09 145.76,-91.18 34.17,-34.13 52.56,-71.02 52.56,-109.43 h 5 5 c 0.01,41.74 -20.08,81.2 -55.5,116.51 -53.17,53.01 -141,97.49 -251.26,128.96 -110.25,31.43 -242.95,49.75 -385.78,49.75 -190.43,-0.01 -362.85,-32.54 -488.105,-85.39 -62.625,-26.45 -113.489,-57.97 -148.934,-93.32 -35.414,-35.31 -55.5,-74.77 -55.496,-116.51 -0.004,-41.74 20.082,-81.19 55.496,-116.5 53.172,-53.01 141.008,-97.49 251.259,-128.96 110.26,-31.43 242.96,-49.75 385.78,-49.75 190.44,0.01 362.86,32.54 488.11,85.39 62.63,26.45 113.49,57.96 148.93,93.32 35.42,35.31 55.51,74.76 55.5,116.5 h -5" /><path
         id="path26"
         style="fill:#ffffff;fill-opacity:1;fill-rule:nonzero;stroke:none"
         d="m 2076.24,3406.37 c 0,-142.61 -273.89,-258.21 -611.74,-258.21 -337.85,0 -611.73,115.6 -611.73,258.21 0,142.62 273.88,258.23 611.73,258.23 337.85,0 611.74,-115.61 611.74,-258.23" /><path
         id="path28"
         style="fill:#17282f;fill-opacity:1;fill-rule:nonzero;stroke:none"
         d="m 2076.24,3406.37 h -5 c 0,-33.98 -16.27,-66.67 -46.6,-96.97 -45.45,-45.41 -122.37,-84.67 -219.48,-112.34 -97.11,-27.69 -214.39,-43.91 -340.66,-43.9 -168.34,-0.02 -320.74,28.84 -430.61,75.23 -54.937,23.18 -99.21,50.75 -129.515,81.01 -30.332,30.3 -46.602,62.99 -46.605,96.97 0.003,33.99 16.273,66.68 46.605,96.98 45.449,45.41 122.365,84.67 219.475,112.34 97.11,27.7 214.39,43.91 340.65,43.91 168.35,0.01 320.75,-28.85 430.62,-75.24 54.94,-23.18 99.21,-50.75 129.52,-81.01 30.33,-30.3 46.6,-62.99 46.6,-96.98 h 5 5 c 0.01,37.33 -17.96,72.57 -49.54,104.06 -47.42,47.27 -125.64,86.86 -223.8,114.87 -98.16,27.99 -216.27,44.29 -343.4,44.3 -169.5,-0.01 -322.97,-28.96 -434.5,-76.03 -55.77,-23.55 -101.082,-51.62 -132.687,-83.14 -31.579,-31.49 -49.547,-66.73 -49.543,-104.06 -0.004,-37.32 17.964,-72.56 49.543,-104.05 47.414,-47.26 125.637,-86.85 223.797,-114.87 98.15,-27.99 216.27,-44.29 343.39,-44.29 169.51,0.01 322.98,28.96 434.51,76.02 55.77,23.55 101.08,51.62 132.69,83.14 31.58,31.49 49.55,66.73 49.54,104.05 h -5" /><path
         id="path30"
         style="fill:#6ccb94;fill-opacity:1;fill-rule:nonzero;stroke:none"
         d="m 1034.67,3222.69 c 110.49,-46.07 262.26,-74.53 429.83,-74.53 167.57,0 319.35,28.46 429.84,74.53 -110.49,46.07 -262.27,74.53 -429.84,74.53 -167.57,0 -319.34,-28.46 -429.83,-74.53" /><path
         id="path32"
         style="fill:#17282f;fill-opacity:1;fill-rule:nonzero;stroke:none"
         d="m 1034.67,3222.69 -1.93,-4.62 c 111.31,-46.39 263.62,-74.9 431.76,-74.91 168.14,0.01 320.46,28.52 431.76,74.91 l 11.07,4.62 -11.07,4.61 c -111.3,46.4 -263.62,74.91 -431.76,74.92 -168.14,-0.01 -320.45,-28.52 -431.76,-74.92 l -11.06,-4.61 11.06,-4.62 1.93,4.62 1.92,-4.62 c 109.67,45.75 260.92,74.16 427.91,74.15 167,0.01 318.25,-28.4 427.91,-74.15 l 1.93,4.62 -1.93,4.61 c -109.66,-45.74 -260.91,-74.16 -427.91,-74.14 -166.99,-0.02 -318.24,28.4 -427.91,74.14 l -1.92,-4.61 1.92,-4.62 -1.92,4.62" /><path
         id="path34"
         style="fill:#17282f;fill-opacity:1;fill-rule:nonzero;stroke:none"
         d="m 3896.09,2642.36 c 0,0 327.01,-776.64 405.74,-817.69 78.72,-41.06 2385.8,159.19 2385.8,159.19 l -65.46,72.87 -3.14,502.61 86.25,3.82 -881.3,1160.75 -1991.64,-145.44 c 0,0 -106.85,-74.05 -121.1,-138.05 -14.26,-63.99 -11.05,-160.73 -11.05,-160.73 l 195.9,-637.33" /><path
         id="path36"
         style="fill:#17282f;fill-opacity:1;fill-rule:nonzero;stroke:none"
         d="m 3896.09,2642.36 -4.61,-1.94 c 0.01,-0.03 81.78,-194.22 173.41,-393.6 45.82,-99.7 94.1,-200.68 135.91,-279.42 20.91,-39.37 40.19,-73.17 56.81,-98.55 8.31,-12.69 15.95,-23.28 22.87,-31.47 6.96,-8.17 13.05,-13.98 19.04,-17.15 2.76,-1.41 6.08,-2.21 10.53,-2.97 13.19,-2.19 36.09,-3.13 67.88,-3.14 206.3,0.01 783.58,41.2 1309.62,82.39 525.99,41.19 1000.5,82.37 1000.51,82.37 l 9.99,0.87 -70.89,78.91 -3.1,495.9 90.98,4.02 -888.72,1170.52 -1995.71,-145.74 -1.12,-0.78 c -0.12,-0.09 -26.98,-18.7 -55.76,-45.47 -14.39,-13.4 -29.27,-28.83 -41.55,-45.11 -12.26,-16.29 -21.99,-33.4 -25.82,-50.49 -9.99,-44.93 -11.47,-104.8 -11.48,-137.78 0,-14.81 0.31,-24.16 0.31,-24.2 l 0.02,-0.67 196.17,-638.21 0.1,-0.23 4.61,1.94 4.78,1.47 -195.9,637.33 -4.78,-1.47 4.99,0.17 c 0,0.01 -0.07,2.28 -0.15,6.42 -0.07,4.14 -0.15,10.12 -0.15,17.45 -0.02,32.61 1.56,92.23 11.24,135.6 3.3,14.91 12.27,31.05 24.05,46.65 17.65,23.42 41.46,45.61 60.83,61.86 9.68,8.12 18.25,14.77 24.39,19.37 3.07,2.31 5.53,4.1 7.22,5.32 1.68,1.21 2.58,1.83 2.58,1.83 l -2.85,4.11 0.36,-4.99 1988.93,145.25 873.9,-1151 -81.53,-3.6 3.18,-509.33 66.73,-74.28 3.72,3.34 -0.43,4.99 c -0.03,-0.01 -7.42,-0.65 -21.42,-1.85 -105,-9.05 -580.58,-49.78 -1078.12,-88.24 -497.5,-38.46 -1017.2,-74.65 -1209.73,-74.64 -21.03,0 -38.14,0.43 -50.78,1.33 -6.31,0.44 -11.51,1.01 -15.45,1.67 -3.92,0.63 -6.67,1.48 -7.56,1.98 -3.85,1.96 -9.54,7.04 -16.03,14.74 -24.57,28.99 -61.53,93.99 -102.54,174.58 -61.6,120.97 -132.84,277.47 -188.65,403.7 -27.91,63.11 -51.97,118.66 -69.05,158.43 -8.54,19.88 -15.33,35.82 -19.99,46.79 -4.66,10.97 -7.17,16.94 -7.18,16.96 l -4.61,-1.94 4.78,1.47 -4.78,-1.47" /><path
         id="path38"
         style="fill:#dadbd9;fill-opacity:1;fill-rule:nonzero;stroke:none"
         d="M 6619.03,2559.34 4355.58,2377.09 c 0,0 -106.46,-61.18 -123.07,-202.41 -16.61,-141.24 40.54,-284.71 82.98,-305.33 42.44,-20.62 97.75,-22.31 97.75,-22.31 l 2208.93,209.69 -3.14,502.61" /><path
         id="path40"
         style="fill:#17282f;fill-opacity:1;fill-rule:nonzero;stroke:none"
         d="m 6619.03,2559.34 -0.4,4.99 -2264.57,-182.35 -0.97,-0.56 c -0.34,-0.19 -27.39,-15.77 -56.59,-49.29 -29.19,-33.5 -60.52,-85.08 -68.95,-156.87 -2.05,-17.36 -2.99,-34.74 -2.99,-51.91 0.01,-62.14 12.27,-121.6 29.29,-168.03 8.52,-23.22 18.22,-43.18 28.29,-58.66 10.12,-15.45 20.44,-26.52 31.16,-31.8 43.84,-21.22 99.46,-22.76 99.79,-22.82 l 0.32,-0.01 2213.79,210.15 -3.2,512.58 -5.37,-0.43 0.4,-4.99 -5,-0.03 3.11,-498.04 -2204.37,-209.25 0.47,-4.98 0.16,5 c -0.01,0 -0.79,0.02 -2.35,0.1 -10.84,0.55 -57.47,4.2 -93.38,21.71 -7.91,3.78 -17.66,13.61 -27.15,28.27 -28.71,43.98 -56.02,130.05 -55.96,221.23 0,16.81 0.92,33.8 2.92,50.75 8.17,69.44 38.37,119.07 66.56,151.46 14.1,16.19 27.68,28.04 37.71,35.81 5.01,3.89 9.13,6.76 11.98,8.64 1.42,0.95 2.53,1.64 3.27,2.1 l 0.83,0.5 0.24,0.14 -2.49,4.34 0.4,-4.99 2263.46,182.26 -0.41,4.98 -5,-0.03 5,0.03" /><path
         id="path42"
         style="fill:#6ccb94;fill-opacity:1;fill-rule:nonzero;stroke:none"
         d="M 4316.04,4313.45 3403.12,3052.93 c 0,0 -49.74,-49.01 -47.37,-169.08 2.37,-120.06 8.46,-316.03 44.22,-329.75 35.77,-13.72 2677.25,-214.24 2677.25,-214.24 l 609.85,1408.7 -47.63,20.4 16.61,346.84 39.62,112.47 -2312.59,108.39 -67.04,-23.21" /><path
         id="path44"
         style="fill:#17282f;fill-opacity:1;fill-rule:nonzero;stroke:none"
         d="m 4316.04,4313.45 -4.05,2.93 -912.92,-1260.52 4.05,-2.93 -3.51,3.56 c -0.74,-0.66 -48.98,-48.88 -48.94,-164.36 v 0 c 0,-2.76 0.02,-5.55 0.08,-8.38 v 0 c 1.19,-60.07 3.3,-139.16 9.61,-205.13 3.16,-33 7.36,-62.7 13.1,-85.32 2.88,-11.32 6.13,-20.87 10,-28.33 3.9,-7.38 8.37,-13.02 14.72,-15.54 1.39,-0.5 2.56,-0.69 4.53,-1.04 14.76,-2.47 67.03,-7.56 148.03,-14.72 566.44,-50.04 2526.08,-198.79 2526.1,-198.79 l 3.55,-0.27 613.26,1416.57 -49.05,21.01 16.41,342.64 41.6,118.12 -2320.26,108.75 -69.44,-24.04 -0.92,-1.28 4.05,-2.93 1.63,-4.73 66.13,22.91 2304.91,-108.04 -37.62,-106.82 -16.81,-351.04 46.21,-19.79 -607.86,-1404.09 4.59,-1.99 0.38,4.99 c 0,0 -41.28,3.13 -113.57,8.64 -253.04,19.28 -886.14,67.68 -1459.87,112.76 -286.87,22.54 -558.91,44.24 -761.17,61.07 -101.12,8.41 -184.81,15.6 -244.17,21.06 -29.68,2.73 -53.29,5.03 -69.92,6.83 -8.32,0.9 -14.9,1.67 -19.59,2.31 -2.34,0.31 -4.21,0.6 -5.55,0.84 l -1.58,0.31 -0.4,0.1 h -0.02 c -2.59,0.91 -6.13,4.4 -9.42,10.82 -5.84,11.15 -10.89,30.13 -14.86,53.61 -12,70.58 -15.19,182.04 -16.73,260.75 -0.06,2.76 -0.08,5.49 -0.08,8.18 0,56.33 11.7,95.77 23.27,121.09 5.79,12.65 11.55,21.78 15.82,27.69 2.13,2.96 3.89,5.12 5.1,6.52 l 1.37,1.52 0.33,0.35 0.07,0.07 0.29,0.29 913.17,1260.85 -4.05,2.94 1.63,-4.73 -1.63,4.73" /><path
         id="path46"
         style="fill:#ffffff;fill-opacity:1;fill-rule:nonzero;stroke:none"
         d="m 3485.24,3017.05 c 0,0 -82.65,25.55 -106.07,-53.82 -23.42,-79.38 34.22,-367.15 34.22,-367.15 0,0 49.31,-20.53 71.99,-21.22 22.68,-0.69 2564.76,-168.52 2564.76,-168.52 l 589.3,1362.62 16.61,346.84 -563.78,-1221.02 -2607.03,122.27" /><path
         id="path48"
         style="fill:#17282f;fill-opacity:1;fill-rule:nonzero;stroke:none"
         d="m 3485.24,3017.05 1.48,4.78 c -0.31,0.08 -13.39,4.13 -30.99,4.14 -13.66,-0.01 -30.15,-2.45 -45.3,-11.47 -15.16,-9 -28.67,-24.7 -36.05,-49.86 -4.19,-14.27 -5.79,-33.91 -5.81,-57.07 0.04,-113.67 39.9,-312.3 39.91,-312.48 l 0.53,-2.61 2.45,-1.02 c 0.06,-0.02 12.47,-5.19 27.79,-10.46 15.41,-5.26 33.4,-10.7 45.98,-11.14 v 0 c 1.13,-0.03 12.57,-0.73 32.37,-2 148.97,-9.5 782.03,-51.13 1377.84,-90.38 595.81,-39.26 1154.37,-76.13 1154.37,-76.13 l 3.52,-0.24 591.06,1366.7 17.88,373.39 -573.13,-1241.27 -2603.67,122.11 -0.23,-4.99 1.48,4.78 -1.48,-4.78 -0.23,-5 2610.38,-122.42 554.43,1200.76 -15.33,-320.28 -588.94,-1361.79 4.59,-1.98 0.33,4.98 c 0,0 -635.52,41.96 -1273.88,84.01 -319.17,21.02 -639.06,42.07 -880.57,57.9 -120.75,7.91 -221.92,14.53 -293.6,19.18 -35.84,2.33 -64.31,4.17 -84.18,5.43 -19.92,1.27 -31.01,1.96 -32.71,2.02 v 0 c -10.1,0.25 -28.1,5.42 -43.03,10.6 -7.49,2.58 -14.31,5.14 -19.24,7.06 -4.94,1.92 -7.95,3.17 -7.95,3.17 l -1.92,-4.61 4.9,0.98 c 0,0.01 -0.62,3.08 -1.71,8.72 -7.6,39.43 -38.04,204.03 -38.01,301.79 -0.01,22.65 1.67,41.7 5.4,54.24 6.86,23.13 18.56,36.29 31.58,44.1 13.03,7.78 27.69,10.06 40.18,10.06 8.03,0 15.12,-0.94 20.15,-1.88 2.52,-0.47 4.53,-0.93 5.89,-1.28 l 1.53,-0.4 0.46,-0.14 0.61,-0.19 0.64,-0.03 0.23,5" /><path
         id="path50"
         style="fill:#dadbd9;fill-opacity:1;fill-rule:nonzero;stroke:none"
         d="m 6033.96,2897.51 -2548.72,119.54 c 0,0 -82.65,25.55 -106.07,-53.82 -23.42,-79.38 34.22,-367.15 34.22,-367.15 0,0 49.31,-20.53 71.99,-21.22 22.68,-0.69 2564.76,-168.52 2564.76,-168.52 l -3.52,480.32 -12.66,10.85" /><path
         id="path52"
         style="fill:#17282f;fill-opacity:1;fill-rule:nonzero;stroke:none"
         d="m 6033.96,2897.51 0.23,5 -2548.72,119.53 -0.23,-4.99 1.48,4.78 c -0.31,0.08 -13.39,4.13 -30.99,4.14 -13.66,-0.01 -30.15,-2.45 -45.3,-11.47 -15.16,-9 -28.67,-24.7 -36.05,-49.86 -4.19,-14.27 -5.79,-33.91 -5.81,-57.07 0.04,-113.67 39.9,-312.3 39.91,-312.48 l 0.53,-2.61 2.45,-1.02 c 0.06,-0.02 12.47,-5.19 27.79,-10.46 15.41,-5.26 33.4,-10.7 45.98,-11.14 v 0 c 1.13,-0.03 12.57,-0.73 32.37,-2 148.97,-9.5 782.03,-51.13 1377.84,-90.38 595.81,-39.26 1154.37,-76.13 1154.37,-76.13 l 5.37,-0.36 -3.57,487.99 -15.71,13.45 -1.71,0.08 -0.23,-5 -3.26,-3.8 10.94,-9.36 3.5,-478.05 5,0.04 0.33,4.98 c 0,0 -635.52,41.96 -1273.88,84.01 -319.17,21.02 -639.06,42.07 -880.57,57.9 -120.75,7.91 -221.92,14.53 -293.6,19.18 -35.84,2.33 -64.31,4.17 -84.18,5.43 -19.92,1.27 -31.01,1.96 -32.71,2.02 v 0 c -10.1,0.25 -28.1,5.42 -43.03,10.6 -7.49,2.58 -14.31,5.14 -19.24,7.06 -4.94,1.92 -7.95,3.17 -7.95,3.17 l -1.92,-4.61 4.9,0.98 c 0,0.01 -0.62,3.08 -1.71,8.72 -7.6,39.43 -38.04,204.03 -38.01,301.79 -0.01,22.65 1.67,41.7 5.4,54.24 6.86,23.13 18.56,36.29 31.58,44.1 13.03,7.78 27.69,10.06 40.18,10.06 8.03,0 15.12,-0.94 20.15,-1.88 2.52,-0.47 4.53,-0.93 5.89,-1.28 l 1.53,-0.4 0.46,-0.14 0.61,-0.19 2549.35,-119.56 0.24,4.99 -3.26,-3.8 3.26,3.8" /><path
         id="path54"
         style="fill:#6ccb94;fill-opacity:1;fill-rule:nonzero;stroke:none"
         d="m 3827.59,434.5 c 0,0 93.4,-134.719 191.03,-132.551 C 4669.27,316.41 5791.18,5.01172 5921.46,5.01172 c 130.28,0 226.97,11.53908 226.97,39.17968 0,27.6289 -457.95,1839.6886 -457.95,1839.6886 l -90.8,27.64 311.88,-1768.629 c 0,0 -386.89,55.261 -1168.56,185.55 -781.67,130.27 -749.6,240.289 -844.34,220.539 -94.75,-19.73 -71.07,-114.48 -71.07,-114.48" /><path
         id="path56"
         style="fill:#17282f;fill-opacity:1;fill-rule:nonzero;stroke:none"
         d="m 3827.59,434.5 -4.11,-2.848 c 0.13,-0.172 23.25,-33.543 58.73,-67.07 35.51,-33.453 83.33,-67.523 134.08,-67.652 l 2.44,0.019 c 14.73,0.332 29.7,0.492 44.9,0.492 327.31,0.02 759.8,-74.281 1126.19,-148.621 183.22,-37.16 349.93,-74.3395 478.84,-102.2302 64.46,-13.9375 119.46,-25.5703 162.39,-33.7109 42.99,-8.14843 73.65,-12.8398375 90.41,-12.8671812 65.3,0 122.2,2.8789112 163.11,9.2773412 20.48,3.22264 36.94,7.28124 48.76,12.55074 5.91,2.6602 10.7,5.6094 14.26,9.2305 3.55,3.5703 5.86,8.1485 5.84,13.1211 -0.02,1.168 -0.17,2 -0.4,3.4297 -1.82,10.5781 -10.24,46.7187 -23.72,102.5899 -94.24,390.57 -433.98,1734.889 -433.98,1734.899 l -0.69,2.74 -101.3,30.83 313.3,-1776.66 4.92,0.871 0.71,4.949 c -0.02,0 -6.04,0.859 -18.14,2.621 -84.7,12.359 -466.38,68.91 -1150.31,182.91 -359.87,59.969 -546.94,115.621 -653.18,156.168 -53.14,20.293 -86.05,36.77 -110.59,48.332 -24.47,11.508 -41.08,18.41 -60.92,18.418 -6.74,0 -13.77,-0.797 -21.49,-2.41 -32.68,-6.75 -52.58,-22.598 -63.77,-40.707 -11.21,-18.102 -13.9,-38.043 -13.91,-53.383 0.01,-15.348 2.72,-26.23 2.78,-26.5 l 0.22,-0.891 0.52,-0.746 4.11,2.848 4.85,1.211 -0.08,0.379 c -0.45,1.961 -2.4,11.301 -2.4,23.699 -0.01,14.203 2.57,32.281 12.41,48.102 9.87,15.808 26.82,29.789 57.31,36.199 7.19,1.5 13.5,2.199 19.45,2.199 17.29,0.012 32.21,-5.949 56.66,-17.469 36.59,-17.23 93.32,-46.179 208.15,-81.898 114.87,-35.75 288.02,-78.383 558.24,-123.422 781.7,-130.289 1168.64,-185.559 1168.68,-185.559 l 6.82,-0.98 -311.66,1767.399 83,-25.26 1.46,4.78 -4.85,-1.22 c 0.01,-0.02 1.79,-7.08 5.14,-20.36 25.16,-99.59 138.36,-547.94 245.27,-974.628 53.46,-213.352 105.34,-421.281 143.86,-577.492 19.26,-78.098 35.17,-143.27 46.27,-189.711 5.55,-23.219 9.9,-41.7581 12.85,-54.8674 1.47,-6.5508 2.6,-11.75 3.35,-15.4727 0.38,-1.8476 0.66,-3.3476 0.83,-4.4101 l 0.19,-1.2579 0.04,-0.3086 v -0.0429 l 1.52,0.082 h -1.52 v -0.082 l 1.52,0.082 h -1.52 c -0.03,-1.9414 -0.73,-3.7695 -2.98,-6.1211 -3.9,-4.0781 -12.61,-8.4805 -25.13,-12.0586 -37.65,-10.9609 -108.62,-16.03123 -193.86,-16 -15.08,-0.03123 -45.84,4.5703 -88.55,12.6875 -149.72,28.4219 -448.42,99.6018 -781.36,163.6718 -332.99,64.07 -700.26,121.059 -987.92,121.07 -15.27,0 -30.31,-0.16 -45.12,-0.492 l -2.22,-0.027 c -46.04,-0.133 -92.56,32.09 -127.21,64.93 -17.33,16.367 -31.71,32.789 -41.74,45.089 -5.01,6.149 -8.94,11.278 -11.6,14.848 -1.33,1.793 -2.35,3.191 -3.03,4.141 -0.68,0.941 -1.01,1.422 -1.01,1.422 l -4.11,-2.852 4.85,1.211 -4.85,-1.211" /><path
         id="path58"
         style="fill:#17282f;fill-opacity:1;fill-rule:nonzero;stroke:none"
         d="M 6014.2,52.0898 C 5879.98,59.9805 5618.91,127.969 4974.77,260.199 4330.62,392.449 3847.3,472.602 3847.3,472.602 l -13.55,-46.473 c 22.27,-29.348 102.03,-126.02 184.88,-124.18 C 4669.27,316.41 5791.18,5.01172 5921.46,5.01172 c 130.28,0 226.97,11.53908 226.97,39.17968 0,2.25 -67.28,3.9492 -134.23,7.8984" /><path
         id="path60"
         style="fill:#17282f;fill-opacity:1;fill-rule:nonzero;stroke:none"
         d="m 6014.2,52.0898 0.29,4.9922 c -133.1,7.7696 -394.61,75.77 -1038.72,208.02 C 4331.53,397.371 3848.16,477.52 3848.12,477.531 l -4.38,0.719 -15.5,-53.141 1.52,-2 c 11.18,-14.718 36.49,-46.007 69.56,-73.808 33.08,-27.742 73.98,-52.301 116.97,-52.371 l 2.45,0.019 c 14.73,0.332 29.7,0.492 44.9,0.492 327.31,0.02 759.79,-74.281 1126.18,-148.621 183.22,-37.16 349.93,-74.3395 478.84,-102.2302 64.46,-13.9375 119.46,-25.5703 162.39,-33.7109 42.99,-8.14843 73.65,-12.8398375 90.41,-12.8671812 65.3,0 122.2,2.8789112 163.11,9.2773412 20.48,3.22264 36.94,7.28124 48.76,12.55074 5.91,2.6602 10.7,5.6094 14.26,9.2305 3.55,3.5703 5.86,8.1485 5.84,13.1211 0,1.6484 -0.82,2.918 -1.39,3.5078 -1.2,1.1797 -1.81,1.2617 -2.33,1.5 -0.98,0.3399 -1.71,0.461 -2.68,0.6328 -3.46,0.5391 -9.45,1 -17.8,1.5 -24.92,1.4688 -69.91,3.1094 -114.74,5.75 l -0.29,-4.9922 -0.29,-4.9882 c 33.53,-1.9805 67.11,-3.3907 92.27,-4.5899 12.58,-0.6015 23.07,-1.1523 30.33,-1.6797 3.62,-0.2617 6.45,-0.5312 8.22,-0.7695 l 1.62,-0.2812 0.61,2.25 -1.09,-2.0391 0.48,-0.2109 0.61,2.25 -1.09,-2.0391 2.1,3.9297 -3.25,-3.043 1.15,-0.8867 2.1,3.9297 -3.25,-3.043 3.55,3.3125 h -4.84 c 0,-1.5898 0.78,-2.7812 1.29,-3.3125 l 3.55,3.3125 h -4.84 c -0.03,-1.9414 -0.73,-3.7695 -2.98,-6.1211 -3.9,-4.0781 -12.61,-8.4805 -25.13,-12.0586 -37.65,-10.9609 -108.62,-16.03123 -193.86,-16 -15.08,-0.03123 -45.84,4.5703 -88.55,12.6875 -149.72,28.4219 -448.42,99.6018 -781.36,163.6718 -332.99,64.07 -700.26,121.059 -987.91,121.07 -15.27,0 -30.32,-0.16 -45.12,-0.492 l -2.23,-0.027 c -39.01,-0.07 -78.35,22.937 -110.53,50.027 -32.18,27.043 -57.14,57.852 -68.03,72.203 l -3.98,-3.023 4.8,-1.399 13.55,46.469 -4.8,1.403 -0.82,-4.942 c 0.02,0 7.54,-1.25 22.01,-3.699 C 3969.77,446.82 4410.21,371 4973.76,255.301 5617.94,123.082 5878.57,55.1094 6013.91,47.1016 l 0.29,4.9882" /><path
         id="path62"
         style="fill:#6ccb94;fill-opacity:1;fill-rule:nonzero;stroke:none"
         d="m 1719.45,1954.42 c 0,0 -47.37,-15.79 -55.27,-51.33 -7.89,-35.52 -461.9,-1855.4806 -418.47,-1859.4298 43.43,-3.9493 2435.81,-19.7383 2463.45,7.8984 27.63,27.6406 118.43,382.9414 118.43,382.9414 l -201.33,-272.398 -2076.57,51.32 248.71,1697.568 -78.95,43.43" /><path
         id="path64"
         style="fill:#17282f;fill-opacity:1;fill-rule:nonzero;stroke:none"
         d="m 1719.45,1954.42 -1.58,4.74 c -0.25,-0.09 -12.42,-4.14 -25.83,-12.89 -13.34,-8.75 -28.28,-22.33 -32.74,-42.09 -1.83,-8.25 -29.15,-118.48 -69,-281.17 -59.79,-244.12 -147.89,-606.76 -221.04,-922.92 -36.58,-158.078 -69.42,-304.531 -93.13,-418.77 -11.85,-57.121 -21.42,-106.179 -28.04,-144.648 -6.61,-38.5197 -10.29,-66.2306 -10.31,-81.4728 v 0 c 0.01,-3.9297 0.22,-7.0273 0.87,-9.6875 0.35,-1.3398 0.78,-2.6015 1.7,-3.9219 0.86,-1.289 2.71,-2.7382 4.9,-2.9101 h 0.01 c 1.89,-0.168 6.13,-0.3008 13.2,-0.4688 105.18,-2.4609 805.52,-7.6211 1430.86,-7.6211 265.45,0 517.36,0.9297 704.47,3.3907 93.56,1.2383 170.91,2.8515 225.7,4.9218 27.39,1.0391 49.14,2.1875 64.52,3.4766 7.7,0.6406 13.8,1.3125 18.32,2.0508 2.26,0.3711 4.13,0.75 5.71,1.1992 1.62,0.5508 2.84,0.7617 4.66,2.3906 2.38,2.4297 4.44,5.711 6.76,10.0508 8.53,16.1485 19.6,47.2497 31.75,85.3517 36.33,114.148 81.21,289.789 81.23,289.84 l 6.33,24.769 -214.99,-290.871 -2068.32,51.11 248.39,1695.43 -83.91,46.16 -2.07,-0.7 1.58,-4.74 -2.41,-4.38 75.91,-41.75 -249.02,-1699.727 2084.8,-51.532 202.88,274.5 -4.02,2.969 -4.84,1.242 c 0,-0.023 -1.42,-5.543 -3.95,-15.301 -8.87,-34.171 -31.44,-120 -54.79,-200.25 -11.68,-40.121 -23.55,-78.851 -33.98,-108.972 -5.22,-15.0471 -10.07,-27.9573 -14.32,-37.7268 -2.12,-4.8906 -4.1,-8.9922 -5.85,-12.1406 -1.72,-3.1407 -3.31,-5.3594 -4.23,-6.25 l 2.08,-2.0899 -1.56,2.5078 -0.52,-0.4179 2.08,-2.0899 -1.56,2.5078 0.63,-1.0078 -0.55,1.0586 -0.08,-0.0508 0.63,-1.0078 -0.55,1.0586 c 0,-0.0195 -0.87,-0.3594 -2.23,-0.6484 -5.43,-1.25 -17.97,-2.5508 -36.05,-3.6797 -127.09,-8.0313 -533.96,-10.6524 -978.63,-10.6524 -333.47,0 -688.32,1.4688 -962.82,3.211 -137.25,0.8711 -254.41,1.8086 -338.77,2.668 -42.18,0.4335 -76.15,0.8437 -100.33,1.2109 -12.09,0.1914 -21.73,0.3594 -28.7,0.5312 -6.94,0.1485 -11.41,0.3204 -12.54,0.4297 v 0 l -0.28,-3.0898 2.6,1.8594 c -0.12,0.2695 -1.11,1.1523 -2.32,1.2304 l -0.28,-3.0898 2.6,1.8594 -0.64,-0.461 0.72,0.3399 -0.08,0.1211 -0.64,-0.461 0.72,0.3399 c -0.22,0.25 -0.84,3.3906 -0.78,7.9101 -0.03,18.4492 6.39,61.4418 17.71,121.5308 39.62,210.622 138.87,634.602 229.02,1009.5 45.08,187.45 87.89,362.66 119.84,492.86 31.96,130.25 53.01,215.28 54.71,222.92 3.44,15.77 16.13,27.86 28.45,35.89 6.13,4.01 12.07,6.98 16.45,8.93 2.19,0.98 3.99,1.7 5.22,2.17 l 1.41,0.53 0.44,0.15 -1.58,4.74 -2.41,-4.38 2.41,4.38" /><path
         id="path66"
         style="fill:#17282f;fill-opacity:1;fill-rule:nonzero;stroke:none"
         d="M 3709.16,51.5586 C 3736.79,79.1992 3827.59,434.5 3827.59,434.5 L 3814.27,416.469 3689.42,94.9922 1269.85,63.832 1245.71,43.6602 c 43.43,-3.9493 2435.81,-19.7383 2463.45,7.8984" /><path
         id="path68"
         style="fill:#17282f;fill-opacity:1;fill-rule:nonzero;stroke:none"
         d="m 3709.16,51.5586 3.54,-3.5391 c 2.38,2.4297 4.44,5.711 6.76,10.0508 8.53,16.1485 19.6,47.2497 31.75,85.3517 36.33,114.148 81.21,289.789 81.23,289.84 l 6.33,24.769 -28.92,-39.121 -123.87,-318.9686 -2417.97,-31.1406 -34.76,-29.0313 12.01,-1.0898 c 1.89,-0.168 6.13,-0.3008 13.2,-0.4688 105.18,-2.4609 805.52,-7.6211 1430.86,-7.6211 265.45,0 517.36,0.9297 704.47,3.3907 93.56,1.2383 170.91,2.8515 225.7,4.9218 27.39,1.0391 49.14,2.1875 64.52,3.4766 7.7,0.6406 13.8,1.3125 18.32,2.0508 2.26,0.3711 4.13,0.75 5.71,1.1992 1.62,0.5508 2.84,0.7617 4.66,2.3906 l -3.54,3.5391 -3.53,3.543 2.08,-2.0899 -1.56,2.5078 -0.52,-0.4179 2.08,-2.0899 -1.56,2.5078 0.63,-1.0078 -0.55,1.0586 -0.08,-0.0508 0.63,-1.0078 -0.55,1.0586 c 0,-0.0195 -0.87,-0.3594 -2.23,-0.6484 -5.43,-1.25 -17.97,-2.5508 -36.05,-3.6797 -127.09,-8.0313 -533.96,-10.6524 -978.63,-10.6524 -333.47,0 -688.32,1.4688 -962.82,3.211 -137.25,0.8711 -254.41,1.8086 -338.77,2.668 -42.18,0.4335 -76.15,0.8437 -100.33,1.2109 -12.09,0.1914 -21.73,0.3594 -28.7,0.5312 -6.94,0.1485 -11.41,0.3204 -12.54,0.4297 l -0.45,-4.9804 3.2,-3.8399 22.78,19.0313 2421.17,31.1797 125.83,324.0077 12.92,17.492 -4.02,2.969 -4.84,1.242 c 0,-0.023 -1.42,-5.543 -3.95,-15.301 -8.87,-34.171 -31.44,-120 -54.79,-200.25 -11.68,-40.121 -23.55,-78.851 -33.98,-108.972 -5.22,-15.0471 -10.07,-27.9573 -14.32,-37.7268 -2.12,-4.8906 -4.1,-8.9922 -5.85,-12.1406 -1.72,-3.1407 -3.31,-5.3594 -4.23,-6.25 l 3.53,-3.543" /><path
         id="path70"
         style="fill:#ffffff;fill-opacity:1;fill-rule:nonzero;stroke:none"
         d="m 1774.72,1978.1 -55.27,-23.68 -382.94,-1851.541 2352.91,-7.8868 157.92,406.6168 -2210.8,-106.589 205.29,1587.03 -67.11,-3.95" /><path
         id="path72"
         style="fill:#17282f;fill-opacity:1;fill-rule:nonzero;stroke:none"
         d="m 1774.72,1978.1 -1.97,4.6 -57.67,-24.71 L 1330.37,97.9023 3692.84,89.9805 3854.78,506.969 1642.27,400.301 l 205.3,1587.089 -74.02,-4.35 -0.8,-0.34 1.97,-4.6 0.29,-4.99 61.09,3.59 L 1630.82,389.742 3839.89,496.242 3686,100 l -2343.35,7.859 381.17,1842.991 52.87,22.66 -1.97,4.59 0.29,-4.99 -0.29,4.99" /><path
         id="path74"
         style="fill:#dadbd9;fill-opacity:1;fill-rule:nonzero;stroke:none"
         d="M 1494.42,335.801 1387.16,157.371 1336.51,102.879 3689.42,94.9922 3847.34,501.609 1636.54,395.02 1494.42,335.801" /><path
         id="path76"
         style="fill:#17282f;fill-opacity:1;fill-rule:nonzero;stroke:none"
         d="m 1494.42,335.801 -4.29,2.57 -106.99,-177.98 -58.07,-62.4691 2367.77,-7.9414 161.94,416.9885 -2219.35,-107 -144.45,-60.188 -0.85,-1.41 4.29,-2.57 1.92,-4.621 141.32,58.879 L 3839.89,496.242 3686,100 l -2338.05,7.84 43.23,46.512 107.53,178.867 -4.29,2.582 1.92,-4.621 -1.92,4.621" /><path
         id="path78"
         style="fill:#acaead;fill-opacity:1;fill-rule:nonzero;stroke:none"
         d="m 3847.34,501.609 v 363.2 L 1948.42,655.57 1806.3,406.859 l 2041.04,94.75" /><path
         id="path80"
         style="fill:#17282f;fill-opacity:1;fill-rule:nonzero;stroke:none"
         d="m 3847.34,501.609 h 4.99 V 870.391 L 1945.35,660.262 1797.45,401.449 3852.33,496.84 v 4.769 h -4.99 l -0.24,4.993 -2031.95,-94.321 136.35,238.598 1890.83,208.351 0.01,-357.621 h 5 l -0.24,4.993 0.24,-4.993" /><path
         id="path82"
         style="fill:#dadbd9;fill-opacity:1;fill-rule:nonzero;stroke:none"
         d="m 1861.57,2179.45 -55.27,-7.9 -311.88,-1835.749 c 0,0 256.61,19.738 604.02,102.64 347.41,82.911 1054.08,209.239 1290.95,173.719 236.87,-35.539 438.2,-177.66 438.2,-177.66 0,0 295.6,-58.691 627.22,-125.801 C 4786.43,241.582 5279.9,138.93 5607.58,83.6719 5935.25,28.4023 6014.2,52.0898 6014.2,52.0898 L 5607.58,1943.1 5568.1,1954.94 5785.23,241.582 c 0,0 -1369.41,378.469 -1551.01,378.469 -181.6,0 -280.29,193.441 -643.5,264.5 -363.19,71.058 -769.83,-71.059 -1113.29,-130.281 -343.46,-59.211 -635.6,-157.911 -635.6,-157.911 l 90.8,1583.091 h -71.06" /><path
         id="path84"
         style="fill:#17282f;fill-opacity:1;fill-rule:nonzero;stroke:none"
         d="m 1861.57,2179.45 -0.7,4.95 -58.89,-8.42 -313.56,-1845.66 6.38,0.489 c 0.19,0.023 257.03,19.793 604.8,102.773 305.81,73.008 891.22,179.77 1186.98,179.727 39.8,0 74.32,-1.938 102.06,-6.098 117.68,-17.652 226.81,-61.859 306.44,-101.68 39.82,-19.91 72.26,-38.711 94.74,-52.531 11.23,-6.91 19.97,-12.57 25.9,-16.488 2.96,-1.973 5.22,-3.5 6.73,-4.532 1.51,-1.039 2.26,-1.558 2.26,-1.57 l 0.87,-0.609 1.04,-0.199 c 0.05,-0.012 18.47,-3.672 51.37,-10.223 98.67,-19.66 327.12,-65.25 575.82,-115.578 331.61,-67.121 825.1,-169.77 1152.94,-225.0588 176.62,-29.793 281.19,-36.7031 340.29,-36.7031 50.67,0 67.94,5.0703 68.6,5.2617 l 4.42,1.3281 -408.21,1898.4111 -49.68,14.9 218.09,-1720.991 4.97,0.633 1.33,4.82 c -0.02,0 -342.38,94.618 -707.48,189.246 -182.55,47.321 -370.78,94.633 -524.78,130.133 -77,17.75 -145.44,32.551 -200.37,42.918 -54.98,10.36 -96.24,16.321 -119.71,16.352 -44.49,0.008 -83.88,11.808 -123.93,30.847 C 3990.11,712.93 3865.2,835.969 3591.68,889.461 3521.44,903.199 3449.64,909 3377.05,909 3072.33,908.961 2753.48,806.898 2476.58,759.199 2132.68,699.898 1840.38,601.148 1840.23,601.102 l 1.6,-4.743 4.99,-0.277 91.11,1588.368 h -76.71 l -0.35,-0.05 0.7,-4.95 v -5 h 65.77 l -90.92,-1585.188 7.01,2.367 c 0.02,0 4.53,1.531 13.17,4.34 60.47,19.652 321.54,101.633 621.68,153.383 277.88,47.949 596.22,149.687 898.77,149.648 72.06,0 143.21,-5.758 212.71,-19.359 180.85,-35.399 295.53,-101.082 388.19,-158.239 46.33,-28.582 87.15,-55.082 128.04,-74.531 40.87,-19.449 81.92,-31.832 128.23,-31.82 21.93,0.019 63.19,-5.84 117.86,-16.18 191.57,-36.16 549.65,-126.711 859.68,-208.191 155.02,-40.739 298.06,-79.219 402.34,-107.52 52.14,-14.148 94.59,-25.75 124,-33.808 29.42,-8.063 45.75,-12.582 45.79,-12.59 l 7.24,-2 -217.11,1713.178 29.29,-8.78 406,-1888.1209 4.89,1.0507 -1.44,4.7891 0.28,-0.918 -0.27,0.918 h -0.01 l 0.28,-0.918 -0.27,0.918 c -0.4,-0.1172 -17.29,-4.8398 -65.73,-4.8398 -58.32,0 -162.4,6.832 -338.63,36.5625 C 5280.9,143.832 4787.43,246.48 4455.8,313.602 4124.17,380.711 3828.57,439.398 3828.57,439.398 l -0.98,-4.898 2.89,4.082 c -0.34,0.188 -202,142.699 -440.35,178.52 -28.49,4.269 -63.42,6.207 -103.55,6.207 -297.72,-0.039 -882.75,-106.868 -1189.3,-180 -173.52,-41.411 -324.38,-67.039 -431.83,-82.329 -53.73,-7.64 -96.6,-12.691 -126.04,-15.828 -14.71,-1.57 -26.07,-2.66 -33.74,-3.363 -7.67,-0.699 -11.62,-1 -11.63,-1.008 l 0.38,-4.98 4.93,-0.84 311.27,1832.159 51.66,7.38 -0.71,4.95 v -5 5" /><path
         id="path86"
         style="fill:#ffffff;fill-opacity:1;fill-rule:nonzero;stroke:none"
         d="m 1636.54,395.02 -142.12,-59.219 311.88,1835.749 126.33,7.9 -296.09,-1784.43" /><path
         id="path88"
         style="fill:#17282f;fill-opacity:1;fill-rule:nonzero;stroke:none"
         d="m 1636.54,395.02 -1.92,4.609 -133.75,-55.727 309.7,1822.908 116.1,7.25 -295.06,-1778.22 4.93,-0.82 -1.92,4.609 1.92,-4.609 4.94,-0.821 297.11,1790.631 -136.56,-8.54 -314.06,-1848.599 153.05,63.778 0.46,2.73 -4.94,0.821" /><path
         id="path90"
         style="fill:#ffffff;fill-opacity:1;fill-rule:nonzero;stroke:none"
         d="m 3799.96,2424.21 c 0,0 35.53,63.17 359.26,-19.74 323.72,-82.91 662.73,-291.61 939.08,-331.09 276.35,-39.48 457.95,-78.96 457.95,-78.96 L 5931.3,91.5586 c 0,0 -611.91,82.9104 -1188.3,236.8824 -576.38,153.957 -820.66,256.079 -895.66,173.168 l -47.38,1922.601" /><path
         id="path92"
         style="fill:#17282f;fill-opacity:1;fill-rule:nonzero;stroke:none"
         d="m 3799.96,2424.21 4.36,-2.45 -2.77,1.56 2.7,-1.68 0.07,0.12 -2.77,1.56 2.7,-1.68 0.1,0.14 c 0.67,0.88 4.76,5.91 17.98,10.84 13.2,4.91 35.5,9.62 72.1,9.62 52.87,0 135.54,-9.83 263.54,-42.61 161.31,-41.3 326.81,-114.1 486.61,-181.6 159.82,-67.48 313.92,-129.71 453.01,-149.6 138.1,-19.73 252.52,-39.46 332.41,-54.25 39.94,-7.4 71.25,-13.56 92.57,-17.87 21.31,-4.32 32.59,-6.77 32.62,-6.77 l 1.06,4.88 -4.9,-0.97 375.04,-1902.8602 4.91,0.9688 0.67,4.9531 c -0.03,0.0078 -9.53,1.2969 -27.38,3.8593 -124.89,17.961 -656.32,98.27 -1160.3,232.899 -217.29,58.039 -387.37,108.71 -519.08,144.91 -131.76,36.179 -225.01,57.968 -289.47,58.011 -21.02,-0.011 -39.03,-2.332 -54.35,-7.402 -15.31,-5.059 -27.93,-12.949 -37.76,-23.828 l 3.71,-3.352 4.99,0.121 -47.37,1922.6 -5,-0.12 4.36,-2.45 -4.36,2.45 -5,-0.12 47.68,-1935.121 8.4,9.281 c 8.61,9.5 19.54,16.41 33.49,21.039 13.95,4.633 30.92,6.902 51.21,6.902 62.28,0.039 155.31,-21.492 286.82,-57.652 C 4354.1,432.391 4524.28,381.68 4741.71,323.602 5318.5,169.539 5930.52,86.6211 5930.63,86.6094 l 6.93,-0.9375 -377.04,1912.9381 -3.21,0.7 c -0.09,0.02 -181.8,39.52 -458.3,79.02 -137.25,19.58 -290.84,81.45 -450.54,148.92 -159.72,67.45 -325.59,140.46 -488.01,182.06 -128.55,32.92 -211.93,42.92 -266.03,42.93 -41.23,-0.01 -65.5,-5.81 -79.77,-11.92 -14.27,-6.09 -18.52,-12.66 -19.06,-13.66 l -0.67,-1.2 0.03,-1.37 5,0.12" /><path
         id="path94"
         style="fill:#17282f;fill-opacity:1;fill-rule:nonzero;stroke:none"
         d="m 4777.88,1899.35 v 3.99 l -0.3,-3.98 0.3,-0.01 v 3.99 l -0.3,-3.98 0.6,-0.07 c 3.68,-0.5 23.58,-3.79 117.01,-23.34 93.46,-19.54 260.59,-55.36 559.25,-120.97 l 2.14,9.76 c -328.86,72.25 -498.28,108.38 -585.51,126.45 -43.61,9.03 -66.68,13.55 -78.88,15.82 -6.11,1.14 -9.49,1.71 -11.4,2 -1.96,0.29 -2.25,0.33 -2.91,0.34 v -10" /><path
         id="path96"
         style="fill:#17282f;fill-opacity:1;fill-rule:nonzero;stroke:none"
         d="m 4784.18,1819.33 h 0.03 c 2.21,-0.2 31.88,-3.84 244.51,-49.41 104.39,-22.38 255.49,-56.68 439.72,-97.15 l 2.15,9.77 c -184.2,40.46 -335.28,74.76 -439.78,97.16 -113.48,24.32 -174.84,36.7 -207.87,43.01 -33.1,6.31 -37.59,6.56 -38.27,6.61 l -0.49,-9.99" /><path
         id="path98"
         style="fill:#17282f;fill-opacity:1;fill-rule:nonzero;stroke:none"
         d="m 4790.64,1739.31 0.01,0.1 -0.01,-0.1 v 0 l 0.01,0.1 -0.01,-0.1 c 1.16,-0.08 33.34,-3.19 247.53,-49.1 109.68,-23.54 272.31,-61.86 444.28,-99.65 l 2.15,9.77 c -171.89,37.76 -334.48,76.08 -444.33,99.65 -221.36,47.43 -248.21,49.23 -248.97,49.3 l -0.66,-9.97" /><path
         id="path100"
         style="fill:#17282f;fill-opacity:1;fill-rule:nonzero;stroke:none"
         d="m 4797.13,1659.28 0.33,-0.03 c 4.26,-0.41 48.21,-5.45 250.15,-48.76 114.98,-24.7 289.14,-67.05 448.86,-102.14 l 2.14,9.76 c -159.58,35.07 -333.68,77.4 -448.9,102.16 -215.62,46.22 -251.24,48.92 -251.83,48.98 l -0.75,-9.97" /><path
         id="path102"
         style="fill:#17282f;fill-opacity:1;fill-rule:nonzero;stroke:none"
         d="m 4803.64,1579.25 0.46,-0.04 c 5.24,-0.52 56.37,-6.27 252.97,-48.45 120.27,-25.84 305.94,-72.22 453.41,-104.62 l 2.15,9.77 c -147.28,32.35 -332.9,78.72 -453.46,104.63 -209.92,45.03 -254.24,48.63 -254.72,48.68 l -0.81,-9.97" /><path
         id="path104"
         style="fill:#17282f;fill-opacity:1;fill-rule:nonzero;stroke:none"
         d="m 4810.17,1499.22 c 0,0 0.72,-0.06 2.53,-0.26 12.63,-1.42 75.33,-9.61 253.81,-47.91 125.59,-27.02 322.76,-77.41 457.98,-107.13 l 2.15,9.77 c -134.96,29.66 -332.12,80.05 -458.03,107.13 -204.21,43.82 -257.21,48.33 -257.6,48.37 l -0.84,-9.97" /><path
         id="path106"
         style="fill:#17282f;fill-opacity:1;fill-rule:nonzero;stroke:none"
         d="m 4816.69,1419.19 c 0,0 0.88,-0.08 2.91,-0.31 14.23,-1.57 82.88,-10.3 256.36,-47.55 130.91,-28.17 339.57,-82.59 462.55,-109.61 l 2.14,9.76 c -122.64,26.95 -331.32,81.37 -462.59,109.63 -198.51,42.62 -260.17,48.01 -260.51,48.04 l -0.86,-9.96" /><path
         id="path108"
         style="fill:#17282f;fill-opacity:1;fill-rule:nonzero;stroke:none"
         d="m 4823.22,1339.16 c 0,0 1.03,-0.09 3.29,-0.34 15.83,-1.74 90.43,-11.02 258.91,-47.22 136.21,-29.33 356.37,-87.77 467.1,-112.09 l 2.15,9.77 c -110.33,24.23 -330.55,82.68 -467.15,112.1 -192.83,41.43 -263.13,47.71 -263.41,47.74 l -0.89,-9.96" /><path
         id="path110"
         style="fill:#17282f;fill-opacity:1;fill-rule:nonzero;stroke:none"
         d="m 4829.75,1259.13 c 0.01,0 1.17,-0.11 3.66,-0.38 17.43,-1.89 97.99,-11.73 261.45,-46.86 141.53,-30.5 373.18,-92.95 471.68,-114.6 l 2.14,9.77 c -98.01,21.53 -329.78,84.01 -471.72,114.6 -187.14,40.22 -266.06,47.41 -266.3,47.43 l -0.91,-9.96" /><path
         id="path112"
         style="fill:#17282f;fill-opacity:1;fill-rule:nonzero;stroke:none"
         d="m 4836.28,1179.1 c 0.01,0 1.31,-0.12 4.03,-0.41 19.02,-2.05 105.55,-12.44 264,-46.52 146.85,-31.66 389.99,-98.13 476.24,-117.09 l 2.15,9.77 c -85.69,18.82 -329.02,85.34 -476.28,117.1 -181.46,39.02 -269.01,47.09 -269.22,47.11 l -0.92,-9.96" /><path
         id="path114"
         style="fill:#17282f;fill-opacity:1;fill-rule:nonzero;stroke:none"
         d="m 4842.82,1099.07 c 0,0 1.45,-0.13 4.4,-0.45 20.6,-2.21 113.1,-13.16 266.53,-46.18 152.19,-32.82 406.8,-103.299 480.81,-119.569 l 2.15,9.758 c -73.35,16.121 -328.25,86.671 -480.85,119.591 -175.77,37.83 -271.93,46.79 -272.11,46.81 l -0.93,-9.96" /><path
         id="path116"
         style="fill:#17282f;fill-opacity:1;fill-rule:nonzero;stroke:none"
         d="m 4849.36,1019.03 c 0.02,0 6.45,-0.6 18.87,-2.09 37.24,-4.46 127.76,-16.82 254.98,-44.21 78.69,-16.98 184.66,-44.121 278.59,-68.691 93.98,-24.578 175.79,-46.57 206.78,-53.379 l 2.14,9.77 c -30.42,6.672 -112.44,28.711 -206.38,53.281 -93.99,24.59 -200.01,51.738 -279.03,68.789 -170.08,36.63 -274.85,46.47 -275.02,46.49 l -0.93,-9.96" /><path
         id="path118"
         style="fill:#17282f;fill-opacity:1;fill-rule:nonzero;stroke:none"
         d="m 4855.89,939 c 0.02,0 7,-0.66 20.13,-2.211 39.41,-4.66 133.72,-17.289 256.63,-43.777 81.35,-17.571 191.54,-46 287.48,-71.383 95.99,-25.399 177.56,-47.699 202.46,-53.18 l 2.15,9.77 c -24.22,5.32 -106.11,27.691 -202.06,53.082 -95.99,25.39 -206.23,53.851 -287.92,71.488 -164.4,35.422 -277.79,46.16 -277.93,46.172 L 4855.89,939" /><path
         id="path120"
         style="fill:#17282f;fill-opacity:1;fill-rule:nonzero;stroke:none"
         d="m 4862.43,858.98 c 0.02,-0.011 7.54,-0.718 21.4,-2.339 41.57,-4.86 139.66,-17.77 258.27,-43.36 84.01,-18.14 198.4,-47.859 296.35,-74.062 48.97,-13.098 93.84,-25.317 128.78,-34.77 34.98,-9.457 59.88,-16.117 69.37,-18.207 l 2.15,9.758 c -8.93,1.961 -34.01,8.66 -68.9,18.102 -104.81,28.347 -299.12,81.64 -425.64,108.957 -158.72,34.23 -280.7,45.863 -280.83,45.871 l -0.95,-9.961" /><path
         id="path122"
         style="fill:#17282f;fill-opacity:1;fill-rule:nonzero;stroke:none"
         d="m 4868.96,778.949 c 0.02,-0.008 8.09,-0.777 22.67,-2.457 43.74,-5.051 145.61,-18.25 259.92,-42.922 86.67,-18.73 205.27,-49.75 305.22,-76.761 49.98,-13.508 95.3,-26.008 129.68,-35.477 34.42,-9.48 57.65,-15.863 64.17,-17.301 l 2.14,9.77 c -5.76,1.258 -29.35,7.719 -63.66,17.168 -103.13,28.402 -304.92,84.172 -435.44,112.371 -153.04,33.039 -283.63,45.551 -283.75,45.562 l -0.95,-9.953" /><path
         id="path124"
         style="fill:#17282f;fill-opacity:1;fill-rule:nonzero;stroke:none"
         d="m 4875.5,698.922 c 0.02,-0.012 8.63,-0.832 23.93,-2.582 45.9,-5.25 151.56,-18.731 261.57,-42.488 89.32,-19.313 212.13,-51.633 314.09,-79.454 50.98,-13.918 96.76,-26.707 130.56,-36.187 16.9,-4.742 30.81,-8.652 40.88,-11.469 10.14,-2.82 16.18,-4.5 18.1,-4.933 l 2.15,9.773 c -1.15,0.25 -7.56,2 -17.56,4.797 -70.46,19.68 -329.18,93.32 -486.11,127.25 -147.37,31.82 -286.54,45.23 -286.65,45.242 l -0.96,-9.949" /><path
         id="path126"
         style="fill:#17282f;fill-opacity:1;fill-rule:nonzero;stroke:none"
         d="m 4882.04,618.879 c 0.02,0 9.18,-0.887 25.2,-2.699 48.06,-5.438 157.5,-19.2 263.21,-42.051 91.98,-19.879 219,-53.508 322.96,-82.137 51.99,-14.32 98.22,-27.402 131.45,-36.89 16.61,-4.75 29.98,-8.602 39.19,-11.27 9.21,-2.66 14.25,-4.141 14.26,-4.141 l 2.81,9.598 c -0.06,0.012 -323.88,94.68 -508.56,134.621 -141.69,30.621 -289.45,44.91 -289.56,44.922 l -0.96,-9.953" /><path
         id="path128"
         style="fill:#17282f;fill-opacity:1;fill-rule:nonzero;stroke:none"
         d="m 3923.54,2217.39 c 0.01,0 2.17,-0.07 6.31,-0.28 28.94,-1.46 152.79,-9.82 270.84,-47.92 61.93,-19.96 117.13,-51.03 188.78,-91.92 71.64,-40.86 159.64,-91.44 286.99,-150.06 l 4.18,9.09 c -126.96,58.44 -214.56,108.78 -286.21,149.66 -71.65,40.86 -127.46,72.36 -190.67,92.75 -136.62,44.05 -279.65,48.65 -279.9,48.68 l -0.32,-10" /><path
         id="path130"
         style="fill:#17282f;fill-opacity:1;fill-rule:nonzero;stroke:none"
         d="m 4686.95,1855.06 c -119.01,54.78 -202.39,102.61 -273,142.3 -70.59,39.68 -128.5,71.29 -196.3,93.3 -131.14,42.52 -259.55,51.21 -288.06,51.23 -1.56,0 -2.84,-0.02 -3.88,-0.08 l -1.42,-0.11 -1.6,-0.32 3.03,-9.53 -0.89,2.81 0.51,-2.9 0.38,0.09 -0.89,2.81 0.51,-2.9 0.3,0.03 c 0.66,0.05 2.06,0.1 3.95,0.1 27.21,0.03 155.4,-8.66 284.97,-50.74 66.67,-21.64 123.93,-52.84 194.49,-92.51 70.55,-39.66 154.31,-87.7 273.71,-142.67 l 4.19,9.09" /><path
         id="path132"
         style="fill:#17282f;fill-opacity:1;fill-rule:nonzero;stroke:none"
         d="m 4693.25,1773.83 c -111.06,51.12 -190.22,96.42 -259.78,134.92 -69.54,38.5 -129.54,70.23 -201.94,93.86 -132.11,43.05 -254.82,54 -294.61,54.03 -3.31,0 -6.06,-0.08 -8.27,-0.23 -2.25,-0.17 -3.8,-0.31 -5.46,-0.81 l 3.04,-9.53 0.18,0.04 c 1.15,0.26 5.05,0.54 10.51,0.53 38.4,0.02 160.78,-10.88 291.51,-53.53 71.4,-23.31 130.73,-54.65 200.2,-93.1 69.46,-38.45 148.99,-83.97 260.44,-135.27 l 4.18,9.09" /><path
         id="path134"
         style="fill:#17282f;fill-opacity:1;fill-rule:nonzero;stroke:none"
         d="m 4699.56,1692.59 c -103.11,47.46 -178.06,90.26 -246.56,127.57 -68.49,37.3 -130.58,69.15 -207.58,94.39 -134.95,44.19 -254.61,56.91 -301.55,56.94 -4.82,-0.01 -8.89,-0.14 -12.2,-0.4 -3.34,-0.27 -5.83,-0.61 -7.97,-1.27 l 3.03,-9.53 c 0.69,0.24 2.8,0.62 5.72,0.83 2.94,0.23 6.79,0.37 11.42,0.37 45.46,0.02 164.72,-12.61 298.43,-56.44 76.13,-24.96 137.54,-56.43 205.92,-93.68 68.36,-37.23 143.65,-80.22 247.16,-127.87 l 4.18,9.09" /><path
         id="path136"
         style="fill:#17282f;fill-opacity:1;fill-rule:nonzero;stroke:none"
         d="m 4705.87,1611.35 c -95.16,43.8 -165.9,84.08 -233.35,120.21 -67.43,36.11 -131.6,68.08 -213.22,94.94 -138.69,45.6 -256.63,59.88 -308.9,59.9 -12.33,-0.03 -20.82,-0.7 -26.2,-2.35 l 3.04,-9.53 c 3.04,1.02 11.39,1.92 23.16,1.88 50.72,0.02 168.2,-14.12 305.77,-59.39 80.85,-26.62 144.34,-58.23 211.63,-94.27 67.28,-36.03 138.32,-76.48 233.89,-120.48 l 4.18,9.09" /><path
         id="path138"
         style="fill:#17282f;fill-opacity:1;fill-rule:nonzero;stroke:none"
         d="m 4712.18,1530.12 c -87.22,40.14 -153.75,77.9 -220.14,112.84 -66.38,34.93 -132.62,67 -218.87,95.5 -142.91,47.15 -259.9,62.87 -316.53,62.89 -14.67,-0.03 -25.18,-0.98 -31.93,-3.08 l 3.03,-9.53 c 4.63,1.51 14.8,2.64 28.9,2.61 55,0.02 171.49,-15.53 313.4,-62.39 85.56,-28.27 151.14,-60.02 217.34,-94.85 66.19,-34.83 132.99,-72.74 220.62,-113.08 l 4.18,9.09" /><path
         id="path140"
         style="fill:#17282f;fill-opacity:1;fill-rule:nonzero;stroke:none"
         d="m 4718.48,1448.88 c -79.26,36.48 -141.59,71.74 -206.92,105.48 -65.33,33.74 -133.64,65.93 -224.51,96.05 -147.46,48.81 -264.01,65.9 -324.41,65.92 -16.82,-0.02 -29.22,-1.26 -37.43,-3.84 l 3.04,-9.53 c 6.26,2.02 18.16,3.39 34.39,3.37 58.7,0.02 174.72,-16.87 321.27,-65.41 90.27,-29.93 157.95,-61.82 223.06,-95.45 65.1,-33.61 127.65,-69 207.33,-105.68 l 4.18,9.09" /><path
         id="path142"
         style="fill:#17282f;fill-opacity:1;fill-rule:nonzero;stroke:none"
         d="m 4724.79,1367.64 c -142.53,65.58 -232.79,131.19 -423.86,194.72 -152.26,50.55 -268.75,68.95 -332.52,68.97 -18.78,-0.01 -32.97,-1.55 -42.69,-4.61 l 3.03,-9.53 c 7.92,2.54 21.49,4.16 39.66,4.14 62.01,0.03 177.95,-18.14 329.37,-68.46 189.89,-63.13 279.26,-128.2 422.83,-194.32 l 4.18,9.09" /><path
         id="path144"
         style="fill:#17282f;fill-opacity:1;fill-rule:nonzero;stroke:none"
         d="m 4731.1,1286.4 c -126.64,58.27 -215.97,121.13 -416.29,187.91 -157.21,52.34 -273.89,72.02 -340.77,72.04 -20.63,-0.01 -36.53,-1.84 -47.82,-5.42 l 3.04,-9.53 c 9.62,3.08 24.78,4.97 44.78,4.95 65.05,0.02 181.17,-19.41 337.61,-71.53 199.32,-66.44 287.61,-128.72 415.26,-187.5 l 4.19,9.08" /><path
         id="path146"
         style="fill:#17282f;fill-opacity:1;fill-rule:nonzero;stroke:none"
         d="m 4737.4,1205.16 c -110.76,50.98 -199.14,111.08 -408.7,181.09 -162.29,54.17 -279.38,75.1 -349.16,75.13 -22.38,-0.01 -39.91,-2.14 -52.81,-6.23 l 3.03,-9.53 c 11.33,3.63 28.06,5.77 49.78,5.76 67.89,0.02 184.4,-20.64 345.99,-74.61 208.73,-69.75 295.94,-129.22 407.69,-180.69 l 4.18,9.08" /><path
         id="path148"
         style="fill:#17282f;fill-opacity:1;fill-rule:nonzero;stroke:none"
         d="m 4743.71,1123.93 c -94.89,43.67 -182.32,101.01 -401.13,174.28 -167.47,56.02 -285.11,78.18 -357.66,78.2 -24.03,0 -43.15,-2.42 -57.69,-7.04 l 3.03,-9.53 c 13.07,4.17 31.31,6.58 54.66,6.57 70.6,0.03 187.67,-21.84 354.48,-77.69 218.14,-73.06 304.28,-129.74 400.13,-173.87 l 4.18,9.08" /><path
         id="path150"
         style="fill:#17282f;fill-opacity:1;fill-rule:nonzero;stroke:none"
         d="m 4750.02,1042.69 c -79.03,36.37 -165.49,90.95 -393.56,167.47 -172.73,57.9 -291.07,81.27 -366.26,81.3 -25.62,0 -46.26,-2.71 -62.46,-7.86 l 3.03,-9.53 c 14.81,4.72 34.52,7.4 59.43,7.39 73.19,0.03 190.94,-23.03 363.07,-80.78 227.55,-76.38 312.65,-130.27 392.57,-167.07 l 4.18,9.08" /><path
         id="path152"
         style="fill:#17282f;fill-opacity:1;fill-rule:nonzero;stroke:none"
         d="m 4756.33,961.449 c -63.18,29.082 -148.65,80.891 -386,160.661 -178.04,59.8 -297.17,84.37 -374.92,84.4 -27.15,0 -49.28,-3 -67.17,-8.69 l 3.03,-9.53 c 16.57,5.28 37.73,8.22 64.14,8.22 75.69,0.03 194.24,-24.22 371.74,-83.88 236.95,-79.68 321.01,-130.798 385,-160.259 l 4.18,9.078" /><path
         id="path154"
         style="fill:#17282f;fill-opacity:1;fill-rule:nonzero;stroke:none"
         d="m 4762.63,880.219 c -23.59,10.863 -56.65,28.621 -114.49,53.961 -57.86,25.359 -140.57,58.34 -263.93,99.88 -183.4,61.72 -303.41,87.47 -383.65,87.51 -28.62,-0.01 -52.22,-3.3 -71.82,-9.53 l 3.04,-9.53 c 18.34,5.84 40.92,9.06 68.78,9.06 78.14,0.03 197.56,-25.39 380.46,-86.98 123.13,-41.469 205.54,-74.34 263.1,-99.57 57.59,-25.231 90.24,-42.79 114.33,-53.879 l 4.18,9.078" /><path
         id="path156"
         style="fill:#17282f;fill-opacity:1;fill-rule:nonzero;stroke:none"
         d="m 4768.94,798.98 c -15.66,7.2 -44.56,22.469 -101.3,46.61 -56.78,24.152 -141.54,57.242 -269.56,100.41 -188.81,63.66 -309.77,90.6 -392.43,90.63 -30.06,0 -55.08,-3.58 -76.4,-10.36 l 3.03,-9.53 c 20.12,6.4 44.1,9.89 73.37,9.89 80.51,0.03 200.88,-26.56 389.24,-90.099 127.81,-43.109 212.33,-76.109 268.83,-100.152 56.54,-24.047 84.9,-39.047 101.04,-46.481 l 4.18,9.082" /><path
         id="path158"
         style="fill:#17282f;fill-opacity:1;fill-rule:nonzero;stroke:none"
         d="m 4775.25,717.742 c -7.73,3.559 -32.48,16.328 -88.11,39.25 -55.69,22.949 -142.52,56.156 -275.18,100.969 -194.26,65.578 -316.23,93.699 -401.28,93.73 -31.45,0.008 -57.88,-3.871 -80.93,-11.211 l 3.04,-9.519 c 21.9,6.969 47.25,10.73 77.89,10.73 82.85,0.039 204.24,-27.711 398.08,-93.211 132.5,-44.75 219.12,-77.89 274.57,-100.73 55.5,-22.879 79.57,-35.328 87.73,-39.09 l 4.19,9.082" /><path
         id="path160"
         style="fill:#17282f;fill-opacity:1;fill-rule:nonzero;stroke:none"
         d="m 4781.7,636.441 c -0.32,0.161 -81.23,40.579 -355.86,133.469 -199.73,67.531 -322.76,96.82 -410.16,96.852 -32.82,0 -60.63,-4.16 -85.42,-12.063 l 3.03,-9.527 c 23.7,7.547 50.41,11.59 82.39,11.59 85.15,0.039 207.61,-28.871 406.96,-96.321 137.18,-46.402 225.9,-79.671 280.3,-101.332 27.19,-10.828 45.81,-18.75 57.6,-23.957 5.9,-2.601 10.09,-4.523 12.8,-5.793 1.35,-0.64 2.33,-1.109 2.97,-1.418 l 0.92,-0.441 4.47,8.941" /><path
         id="path162"
         style="fill:#ffffff;fill-opacity:1;fill-rule:nonzero;stroke:none"
         d="m 3799.96,2424.21 47.38,-1922.601 c 0,0 -142.13,292.153 -521.12,280.301 C 2947.23,770.07 2110.28,477.93 1976.06,450.289 1841.83,422.652 1636.54,395.02 1636.54,395.02 l 225.03,1835.74 c 0,0 994.86,181.61 1204.09,244.77 209.24,63.17 390.84,130.28 525.06,98.7 134.23,-31.59 209.24,-55.27 209.24,-150.02" /><path
         id="path164"
         style="fill:#17282f;fill-opacity:1;fill-rule:nonzero;stroke:none"
         d="m 3799.96,2424.21 -5,-0.12 47.38,-1922.598 5,0.117 4.49,2.192 c -0.19,0.379 -34.61,71.078 -114.73,141.879 -80.09,70.8 -206.11,141.609 -388.57,141.582 -7.39,0 -14.88,-0.114 -22.46,-0.352 -190.54,-6 -494.52,-82.078 -768.09,-160.078 -136.75,-39 -265.83,-78.492 -369.08,-109.953 -103.21,-31.449 -180.83,-54.91 -213.85,-61.688 -66.95,-13.789 -151.78,-27.601 -219.84,-37.961 -34.02,-5.179 -63.86,-9.488 -85.19,-12.511 -21.33,-3.02 -34.11,-4.739 -34.14,-4.75 l 0.66,-4.949 4.97,-0.61 225.03,1835.75 -4.97,0.6 0.9,-4.91 c 0.01,0 248.74,45.4 523.64,98.7 137.45,26.65 281.44,55.28 404.17,81.2 122.76,25.92 224.16,49.1 276.83,64.99 172.48,52.12 325.99,106.62 448.38,106.55 26.16,0 50.89,-2.47 74.09,-7.93 67.04,-15.74 119.04,-29.61 153.49,-50.72 17.25,-10.55 30.09,-22.77 38.73,-37.93 8.63,-15.17 13.15,-33.46 13.16,-56.5 v -0.06 -0.06 l 5,0.12 h 5 c 0.01,24.33 -4.84,44.54 -14.47,61.44 -14.47,25.41 -39.3,42.84 -72.64,56.82 -33.4,14.01 -75.59,24.76 -125.98,36.62 v 0 c -24.09,5.67 -49.59,8.2 -76.38,8.2 -125.26,-0.07 -278.99,-55.01 -451.27,-106.97 -51.96,-15.69 -153.38,-38.9 -276,-64.79 -183.97,-38.85 -415.87,-83.81 -601.77,-119.06 -92.94,-17.63 -174.39,-32.82 -232.6,-43.61 -29.1,-5.4 -52.4,-9.69 -68.42,-12.64 -16.01,-2.94 -24.73,-4.53 -24.75,-4.54 l -3.62,-0.66 -226.27,-1845.821 6.42,0.86 c 0.06,0.011 205.34,27.64 339.86,55.332 34.09,7.039 111.42,30.461 214.74,61.929 154.89,47.192 367.73,112.399 577.31,166.91 209.54,54.512 415.95,98.29 557.26,102.68 7.48,0.238 14.86,0.352 22.15,0.352 179.81,-0.02 303.19,-69.543 381.94,-139.071 39.36,-34.769 67.5,-69.55 85.78,-95.601 9.14,-13.02 15.81,-23.871 20.18,-31.43 2.19,-3.781 3.8,-6.738 4.86,-8.738 0.53,-1 0.93,-1.762 1.18,-2.27 l 0.37,-0.73 10.06,-20.68 -47.94,1945.588 -5,-0.12 h 5 -5" /><path
         id="path166"
         style="fill:#17282f;fill-opacity:1;fill-rule:nonzero;stroke:none"
         d="m 2079.23,2004.51 737.41,164.42 -2.18,9.76 -737.4,-164.42" /><path
         id="path168"
         style="fill:#17282f;fill-opacity:1;fill-rule:nonzero;stroke:none"
         d="m 2071.15,1922.3 c 0,0 117.05,26.39 235.46,53.21 59.2,13.4 118.75,26.92 164.18,37.3 22.72,5.19 41.9,9.6 55.76,12.81 6.93,1.61 12.52,2.92 16.57,3.89 4.1,0.98 6.4,1.54 7.51,1.88 0.3,0.1 1.95,0.53 4.31,1.1 17.99,4.38 83.02,19.04 143.46,32.59 30.22,6.77 59.31,13.27 80.85,18.08 21.54,4.8 35.48,7.91 35.52,7.91 l -2.17,9.77 c -0.01,-0.01 -63.64,-14.17 -128.53,-28.72 -32.44,-7.28 -65.2,-14.66 -90.48,-20.42 -12.64,-2.87 -23.41,-5.35 -31.35,-7.2 -3.97,-0.93 -7.23,-1.7 -9.67,-2.29 -2.47,-0.61 -3.98,-0.99 -4.93,-1.28 -0.26,-0.09 -2.9,-0.76 -6.85,-1.7 -30.13,-7.19 -148.14,-34 -258.55,-58.99 -55.21,-12.5 -108.53,-24.54 -148.05,-33.47 -19.76,-4.46 -36.07,-8.14 -47.44,-10.7 -11.37,-2.57 -17.78,-4.01 -17.8,-4.02 l 2.2,-9.75" /><path
         id="path170"
         style="fill:#17282f;fill-opacity:1;fill-rule:nonzero;stroke:none"
         d="m 2063.07,1840.09 c 0,0 115.3,26.29 233.34,53.44 59.02,13.57 118.72,27.36 165.03,38.19 23.16,5.41 42.97,10.08 57.69,13.62 14.77,3.55 24.2,5.89 27.34,6.87 2.18,0.69 8.29,2.26 16.9,4.35 30.26,7.34 92.67,21.51 147.48,33.84 27.41,6.17 52.92,11.88 71.58,16.04 18.66,4.17 30.44,6.79 30.47,6.79 l -2.17,9.76 c 0,0 -61.7,-13.71 -125.92,-28.2 -32.11,-7.25 -64.84,-14.7 -90.82,-20.73 -12.99,-3.02 -24.28,-5.68 -32.98,-7.79 -8.72,-2.11 -14.71,-3.64 -17.54,-4.52 -2.3,-0.73 -12.06,-3.18 -26.68,-6.69 -51.39,-12.35 -165.4,-38.66 -266.53,-61.87 -50.57,-11.61 -97.93,-22.45 -132.64,-30.38 -17.35,-3.97 -31.55,-7.21 -41.4,-9.46 -9.86,-2.25 -15.36,-3.5 -15.38,-3.51 l 2.23,-9.75" /><path
         id="path172"
         style="fill:#17282f;fill-opacity:1;fill-rule:nonzero;stroke:none"
         d="m 2054.98,1757.88 c 0,0 113.57,26.19 231.23,53.67 58.83,13.74 118.68,27.8 165.88,39.07 23.6,5.64 44.03,10.58 59.61,14.43 15.6,3.87 26.2,6.6 30.61,7.98 7.13,2.25 27.81,7.37 54.39,13.65 39.92,9.44 93.51,21.61 137.12,31.43 21.8,4.91 41.1,9.23 54.96,12.32 13.85,3.09 22.23,4.94 22.25,4.95 l -2.16,9.76 c -0.01,0 -59.78,-13.25 -123.33,-27.69 -31.77,-7.22 -64.48,-14.74 -91.15,-21.04 -26.7,-6.32 -47.18,-11.36 -55.08,-13.84 -3.77,-1.19 -14.52,-3.98 -30.02,-7.81 -54.36,-13.46 -168.53,-40.25 -269.07,-63.67 -50.27,-11.7 -97.15,-22.57 -131.45,-30.51 -17.15,-3.97 -31.16,-7.21 -40.89,-9.46 -9.72,-2.24 -15.13,-3.49 -15.15,-3.5 l 2.25,-9.74" /><path
         id="path174"
         style="fill:#17282f;fill-opacity:1;fill-rule:nonzero;stroke:none"
         d="m 2046.89,1675.68 c 0.01,0 111.83,26.09 229.12,53.9 58.64,13.9 118.65,28.24 166.73,39.95 48.13,11.74 84.12,20.78 95.41,24.32 9.7,3.06 31.72,8.64 58.99,15.19 40.94,9.85 93.96,21.97 136.73,31.63 21.38,4.83 40.2,9.05 53.68,12.05 13.48,3.01 21.59,4.8 21.61,4.81 l -2.16,9.76 c -0.01,0 -57.85,-12.8 -120.72,-27.18 -31.43,-7.19 -64.12,-14.77 -91.48,-21.35 -27.38,-6.58 -49.31,-12.13 -59.65,-15.37 -10.51,-3.31 -46.79,-12.45 -94.78,-24.14 -72.07,-17.56 -171.01,-41.02 -251.93,-60.09 -40.46,-9.54 -76.42,-17.97 -102.26,-24.02 -25.84,-6.06 -41.52,-9.72 -41.56,-9.73 l 2.27,-9.73" /><path
         id="path176"
         style="fill:#17282f;fill-opacity:1;fill-rule:nonzero;stroke:none"
         d="m 2038.81,1593.47 c 0.01,0 110.09,26 227,54.13 58.45,14.07 118.61,28.68 167.57,40.84 49.01,12.17 86.65,21.85 100.61,26.23 24.62,7.75 93.18,24.07 155.27,38.36 31.07,7.15 60.58,13.82 82.32,18.69 21.74,4.87 35.67,7.95 35.71,7.96 l -2.16,9.76 c 0,0 -55.92,-12.35 -118.11,-26.66 -62.25,-14.34 -130.55,-30.57 -156.03,-38.57 -13.3,-4.18 -51.13,-13.93 -100.02,-26.07 -73.38,-18.22 -172.01,-41.96 -252.27,-61.14 -40.14,-9.59 -75.68,-18.04 -101.2,-24.09 -25.51,-6.05 -40.95,-9.7 -40.99,-9.71 l 2.3,-9.73" /><path
         id="path178"
         style="fill:#17282f;fill-opacity:1;fill-rule:nonzero;stroke:none"
         d="m 2030.73,1511.26 c 0,0 108.35,25.9 224.88,54.36 58.27,14.24 118.58,29.12 168.42,41.72 49.88,12.62 89.17,22.93 105.8,28.15 29.68,9.34 98.76,25.98 160.18,40.21 30.73,7.12 59.58,13.65 80.75,18.4 21.18,4.75 34.62,7.72 34.66,7.72 l -2.15,9.77 c -0.01,0 -54,-11.89 -115.52,-26.15 -61.55,-14.27 -130.48,-30.85 -160.92,-40.41 -16.07,-5.05 -55.48,-15.4 -105.25,-27.99 -74.7,-18.9 -173.01,-42.91 -252.62,-62.2 -39.81,-9.65 -74.95,-18.11 -100.14,-24.16 -25.18,-6.06 -40.38,-9.69 -40.42,-9.7 l 2.33,-9.72" /><path
         id="path180"
         style="fill:#17282f;fill-opacity:1;fill-rule:nonzero;stroke:none"
         d="m 2022.65,1429.05 c 0,0.01 106.61,25.8 222.76,54.6 116.2,28.82 241.73,60.56 280.25,72.66 34.74,10.93 104.35,27.89 165.1,42.06 30.39,7.09 58.59,13.49 79.19,18.12 20.6,4.63 33.56,7.47 33.59,7.48 l -2.14,9.77 c -0.01,0 -52.07,-11.44 -112.91,-25.63 -60.87,-14.21 -130.42,-31.13 -165.83,-42.26 -37.77,-11.88 -163.59,-43.71 -279.66,-72.49 -58.06,-14.4 -113.74,-28.04 -154.9,-38.09 -20.58,-5.02 -37.53,-9.15 -49.34,-12.02 -11.81,-2.86 -18.45,-4.47 -18.47,-4.48 l 2.36,-9.72" /><path
         id="path182"
         style="fill:#17282f;fill-opacity:1;fill-rule:nonzero;stroke:none"
         d="m 2014.56,1346.84 c 0.01,0 104.87,25.7 220.65,54.83 115.82,29.15 242.36,61.66 286.29,75.46 39.79,12.51 109.94,29.79 170.01,43.9 30.05,7.06 57.59,13.33 77.62,17.84 20.04,4.51 32.51,7.24 32.55,7.25 l -2.14,9.77 c -0.09,-0.03 -200.37,-43.88 -281.04,-69.22 -43.26,-13.6 -170.03,-46.19 -285.73,-75.3 -57.87,-14.56 -113.02,-28.26 -153.7,-38.33 -20.34,-5.03 -37.06,-9.15 -48.7,-12.02 -11.64,-2.86 -18.17,-4.46 -18.19,-4.47 l 2.38,-9.71" /><path
         id="path184"
         style="fill:#17282f;fill-opacity:1;fill-rule:nonzero;stroke:none"
         d="m 2006.48,1264.64 c 0.01,0 103.13,25.6 218.53,55.06 115.43,29.47 242.99,62.75 292.33,78.25 44.83,14.1 115.53,31.7 174.92,45.75 29.71,7.03 56.59,13.17 76.06,17.56 19.46,4.38 31.45,7 31.48,7.01 l -2.13,9.77 c -0.08,-0.03 -192.68,-42.07 -283.33,-70.55 -48.75,-15.33 -176.48,-48.66 -291.8,-78.1 -57.69,-14.73 -112.3,-28.49 -152.5,-38.57 -20.1,-5.04 -36.59,-9.16 -48.06,-12.02 -11.47,-2.86 -17.89,-4.45 -17.91,-4.46 l 2.41,-9.7" /><path
         id="path186"
         style="fill:#17282f;fill-opacity:1;fill-rule:nonzero;stroke:none"
         d="m 1998.4,1182.43 c 0.07,0.03 405.4,101.97 514.78,136.34 49.86,15.68 121.12,33.61 179.83,47.6 29.36,6.99 55.6,13.01 74.49,17.27 18.89,4.26 30.4,6.77 30.43,6.77 l -2.13,9.78 c -0.07,-0.03 -184.98,-40.26 -285.62,-71.88 -54.24,-17.05 -182.92,-51.13 -297.88,-80.9 -57.49,-14.89 -111.58,-28.71 -151.29,-38.81 -19.86,-5.05 -36.12,-9.16 -47.42,-12.02 -11.3,-2.86 -17.61,-4.44 -17.63,-4.45 l 2.44,-9.7" /><path
         id="path188"
         style="fill:#17282f;fill-opacity:1;fill-rule:nonzero;stroke:none"
         d="m 1990.32,1100.22 c 0.06,0.02 398.46,101.59 518.69,139.37 54.91,17.26 126.72,35.52 184.75,49.45 29.02,6.96 54.6,12.84 72.93,16.98 18.32,4.15 29.34,6.54 29.37,6.54 l -2.12,9.78 c -0.07,-0.03 -177.3,-38.44 -287.92,-73.21 -59.72,-18.77 -189.37,-53.61 -303.95,-83.71 -57.3,-15.05 -110.86,-28.93 -150.09,-39.05 -19.62,-5.05 -35.65,-9.17 -46.78,-12.02 -11.13,-2.85 -17.33,-4.43 -17.35,-4.44 l 2.47,-9.69" /><path
         id="path190"
         style="fill:#17282f;fill-opacity:1;fill-rule:nonzero;stroke:none"
         d="m 1982.24,1018.02 c 0.05,0.01 391.51,101.2 522.61,142.39 59.94,18.84 132.32,37.43 189.67,51.3 28.67,6.93 53.6,12.68 71.35,16.7 17.75,4.02 28.29,6.29 28.32,6.3 l -2.11,9.77 c -0.08,-0.02 -169.61,-36.62 -290.22,-74.53 -65.2,-20.49 -195.82,-56.08 -310.02,-86.51 -57.11,-15.22 -110.14,-29.16 -148.89,-39.29 -19.37,-5.06 -35.18,-9.17 -46.14,-12.02 -10.96,-2.85 -17.06,-4.43 -17.07,-4.43 l 2.5,-9.68" /><path
         id="path192"
         style="fill:#17282f;fill-opacity:1;fill-rule:nonzero;stroke:none"
         d="m 1974.16,935.809 c 0.05,0.011 384.57,100.811 526.53,145.421 64.97,20.42 137.91,39.34 194.58,53.14 28.33,6.9 52.6,12.53 69.78,16.42 17.18,3.9 27.23,6.06 27.26,6.07 l -2.1,9.77 c -0.08,-0.02 -161.91,-34.81 -292.51,-75.86 -70.68,-22.21 -202.26,-58.56 -316.09,-89.32 -56.93,-15.38 -109.42,-29.38 -147.69,-39.52 -19.13,-5.078 -34.71,-9.188 -45.5,-12.032 -10.79,-2.847 -16.78,-4.418 -16.8,-4.418 l 2.54,-9.671" /><path
         id="path194"
         style="fill:#17282f;fill-opacity:1;fill-rule:nonzero;stroke:none"
         d="m 1966.08,853.602 c 0.04,0.019 377.62,100.429 530.45,148.448 70,22.01 143.5,41.25 199.49,54.99 27.99,6.87 51.61,12.36 68.22,16.14 16.61,3.77 26.18,5.82 26.2,5.82 l -2.09,9.78 c -0.08,-0.02 -154.21,-32.99 -294.82,-77.19 -76.14,-23.918 -208.7,-61.02 -322.16,-92.121 -56.73,-15.547 -108.7,-29.598 -146.49,-39.758 -18.89,-5.09 -34.23,-9.199 -44.85,-12.039 -10.63,-2.832 -16.51,-4.402 -16.52,-4.402 l 2.57,-9.668" /><path
         id="path196"
         style="fill:#17282f;fill-opacity:1;fill-rule:nonzero;stroke:none"
         d="m 1958,771.402 c 0.04,0.008 370.67,100.028 534.37,151.469 75.02,23.578 149.1,43.16 204.4,56.84 27.65,6.84 50.61,12.199 66.65,15.848 16.04,3.652 25.12,5.591 25.15,5.591 l -2.09,9.78 c -0.08,-0.02 -146.51,-31.188 -297.11,-78.52 -81.61,-25.64 -215.15,-63.5 -328.23,-94.918 -56.55,-15.722 -107.99,-29.82 -145.29,-40 -18.65,-5.094 -33.76,-9.203 -44.22,-12.043 -10.45,-2.828 -16.22,-4.39 -16.24,-4.39 l 2.61,-9.657" /><path
         id="path198"
         style="fill:#17282f;fill-opacity:1;fill-rule:nonzero;stroke:none"
         d="m 1949.92,689.191 c 0.03,0.008 363.71,99.641 538.29,154.508 80.04,25.16 154.69,45.071 209.31,58.68 27.31,6.801 49.62,12.043 65.09,15.57 15.47,3.531 24.06,5.34 24.09,5.352 l -2.07,9.781 c -0.1,-0.023 -138.82,-29.371 -299.42,-79.84 -87.08,-27.371 -221.6,-65.98 -334.31,-97.742 -56.35,-15.879 -107.26,-30.051 -144.08,-40.238 -18.41,-5.102 -33.29,-9.211 -43.58,-12.043 -10.28,-2.828 -15.95,-4.379 -15.96,-4.387 l 2.64,-9.641" /><path
         id="path200"
         style="fill:#17282f;fill-opacity:1;fill-rule:nonzero;stroke:none"
         d="m 2921.71,2198.94 c 0.01,0.01 6.84,2.18 19.3,6.01 43.6,13.41 155.79,46.96 281.81,77.13 125.99,30.18 265.97,56.95 364.46,56.93 28.12,0.01 52.83,-2.18 72.71,-6.98 19.9,-4.79 34.8,-12.21 43.73,-22.08 l 7.4,6.73 c -11.01,12.06 -27.79,19.98 -48.79,25.07 -21.02,5.06 -46.41,7.26 -75.05,7.26 -114.47,-0.03 -281.32,-35.2 -419.92,-70.31 -138.54,-35.11 -248.63,-70.21 -248.69,-70.23 l 3.04,-9.53" /><path
         id="path202"
         style="fill:#17282f;fill-opacity:1;fill-rule:nonzero;stroke:none"
         d="m 2919.54,2119.22 c 0.01,0.01 3.62,1.17 10.4,3.3 47.43,14.91 248.97,76.76 432.32,111.27 h -0.01 c 79.37,14.77 155.41,23.74 216.37,23.74 30.86,0 57.85,-2.31 79.32,-7.23 21.49,-4.9 37.29,-12.5 46.09,-22.24 l 7.4,6.72 c -11.08,12.12 -28.72,20.07 -51.26,25.27 -22.56,5.16 -50.19,7.48 -81.55,7.48 -61.92,0 -138.4,-9.07 -218.2,-23.91 h -0.01 C 3149.98,2204 2916.57,2128.77 2916.47,2128.74 l 3.07,-9.52" /><path
         id="path204"
         style="fill:#17282f;fill-opacity:1;fill-rule:nonzero;stroke:none"
         d="m 2917.37,2039.51 c 0.01,0 3.69,1.2 10.58,3.39 48.2,15.3 252.66,78.66 433.46,112.16 h -0.02 c 76,13.77 148.1,21.21 207.01,21.21 34.07,0 63.74,-2.5 87.08,-7.6 23.36,-5.07 40.23,-12.92 48.86,-22.51 l 7.4,6.72 c -11.14,12.15 -29.77,20.18 -54.13,25.55 -24.38,5.33 -54.64,7.83 -89.21,7.84 -59.74,0 -132.31,-7.51 -208.8,-21.37 l -0.02,-0.01 c -207.57,-38.47 -445.19,-115.84 -445.3,-115.87 l 3.09,-9.51" /><path
         id="path206"
         style="fill:#17282f;fill-opacity:1;fill-rule:nonzero;stroke:none"
         d="m 2915.22,1959.8 c 0.01,0.01 3.75,1.24 10.74,3.5 48.95,15.79 256.27,81.03 434.57,113.02 71.8,12.89 139.44,19.12 195.88,19.12 37.82,0.01 70.61,-2.8 96.13,-8.21 25.54,-5.35 43.69,-13.56 52.11,-22.97 l 7.4,6.73 c -11.18,12.15 -30.93,20.34 -57.43,26.02 -26.52,5.61 -59.89,8.43 -98.21,8.43 -57.17,0 -125.32,-6.3 -197.64,-19.28 -204.83,-36.76 -446.58,-116.83 -446.7,-116.87 l 3.15,-9.49" /><path
         id="path208"
         style="fill:#17282f;fill-opacity:1;fill-rule:nonzero;stroke:none"
         d="m 2913.05,1880.08 c 0.01,0 3.82,1.28 10.92,3.59 49.71,16.2 259.95,83.03 435.7,113.91 67.43,11.86 130.65,17.17 184.41,17.16 41.75,0.01 77.81,-3.21 105.57,-8.97 27.77,-5.68 47.21,-14.3 55.31,-23.41 l 7.4,6.72 c -11.12,12.04 -31.96,20.43 -60.67,26.48 -28.72,5.95 -65.34,9.18 -107.61,9.18 -54.42,0 -118.16,-5.36 -186.14,-17.31 C 3155.95,1971.92 2910,1889.6 2909.88,1889.56 l 3.17,-9.48" /><path
         id="path210"
         style="fill:#17282f;fill-opacity:1;fill-rule:nonzero;stroke:none"
         d="m 2910.89,1800.37 c 0.01,0 3.88,1.31 11.1,3.68 50.46,16.61 263.62,85 436.82,114.8 62.99,10.84 121.88,15.45 172.82,15.45 45.82,0 85.22,-3.74 115.25,-9.96 30.01,-6.1 50.72,-15.19 58.4,-23.88 l 7.4,6.73 c -10.95,11.79 -32.82,20.43 -63.77,26.95 -30.94,6.39 -70.91,10.15 -117.28,10.16 -51.54,0 -110.96,-4.66 -174.52,-15.6 -199.15,-34.28 -449.3,-118.83 -449.42,-118.86 l 3.2,-9.47" /><path
         id="path212"
         style="fill:#17282f;fill-opacity:1;fill-rule:nonzero;stroke:none"
         d="m 2908.72,1720.66 c 0.01,0 3.95,1.34 11.27,3.77 51.24,17.01 267.32,86.95 437.96,115.69 58.72,9.89 113.54,13.96 161.64,13.96 49.9,0 92.59,-4.39 124.81,-11.14 16.1,-3.38 29.59,-7.35 39.98,-11.6 10.39,-4.21 17.65,-8.82 21.21,-12.78 l 7.4,6.72 c -5.33,5.81 -13.67,10.74 -24.83,15.32 -33.41,13.6 -92.8,23.45 -168.57,23.48 -48.67,0 -104.02,-4.11 -163.3,-14.1 -196.3,-33.09 -450.67,-119.83 -450.8,-119.86 l 3.23,-9.46" /><path
         id="path214"
         style="fill:#17282f;fill-opacity:1;fill-rule:nonzero;stroke:none"
         d="m 2906.55,1640.94 c 0.01,0.01 4.02,1.38 11.45,3.87 52,17.41 271.02,88.87 439.09,116.57 54.76,9.03 105.86,12.69 151.26,12.69 53.86,0 99.7,-5.16 133.96,-12.53 17.12,-3.69 31.36,-7.94 42.17,-12.31 10.82,-4.33 18.22,-8.97 21.42,-12.57 l 7.4,6.73 c -5.14,5.58 -13.52,10.4 -25.07,15.11 -34.56,13.93 -98.08,25.54 -179.88,25.57 -45.93,0 -97.57,-3.7 -152.89,-12.82 -193.45,-31.92 -452.02,-120.82 -452.16,-120.85 l 3.25,-9.46" /><path
         id="path216"
         style="fill:#17282f;fill-opacity:1;fill-rule:nonzero;stroke:none"
         d="m 2904.38,1561.22 c 0.01,0 4.08,1.41 11.63,3.96 52.76,17.8 274.72,90.77 440.22,117.47 51.18,8.26 98.96,11.58 141.83,11.58 57.68,0.01 106.47,-6.02 142.6,-14.1 18.05,-4.03 32.94,-8.58 44.12,-13.09 11.15,-4.45 18.65,-9.12 21.43,-12.28 l 7.4,6.73 c -4.9,5.28 -13.22,9.98 -25.09,14.82 -35.49,14.29 -102.86,27.9 -190.46,27.92 -43.39,0 -91.7,-3.36 -143.43,-11.71 -190.59,-30.78 -453.38,-121.82 -453.52,-121.85 l 3.27,-9.45" /><path
         id="path218"
         style="fill:#17282f;fill-opacity:1;fill-rule:nonzero;stroke:none"
         d="m 2902.21,1481.51 c 0.02,0 4.15,1.44 11.8,4.04 53.54,18.19 278.43,92.66 441.36,118.37 47.98,7.57 92.81,10.62 133.37,10.62 61.33,0 112.89,-6.98 150.69,-15.81 18.9,-4.41 34.36,-9.29 45.82,-13.94 11.42,-4.57 18.96,-9.25 21.27,-11.93 l 7.4,6.73 c -4.62,4.95 -12.79,9.48 -24.91,14.47 -36.2,14.65 -107.1,30.46 -200.27,30.48 -41.06,0 -86.41,-3.09 -134.93,-10.75 -187.74,-29.66 -454.74,-122.81 -454.89,-122.84 l 3.29,-9.44" /><path
         id="path220"
         style="fill:#17282f;fill-opacity:1;fill-rule:nonzero;stroke:none"
         d="m 2900.04,1401.79 c 0.01,0.01 4.21,1.48 11.98,4.14 54.3,18.57 282.14,94.52 442.48,119.25 45.15,6.97 87.37,9.79 125.82,9.79 64.82,0 118.96,-8.02 158.27,-17.65 19.66,-4.82 35.61,-10.05 47.28,-14.84 5.83,-2.39 10.59,-4.67 14.16,-6.7 3.55,-1.99 5.94,-3.84 6.8,-4.82 l 7.4,6.73 c -2.18,2.36 -5.2,4.46 -9.27,6.79 -14.16,8 -41.4,17.97 -79.72,26.14 -38.27,8.14 -87.47,14.35 -144.92,14.35 -38.94,0 -81.67,-2.86 -127.34,-9.9 -184.87,-28.57 -456.1,-123.81 -456.25,-123.84 l 3.31,-9.44" /><path
         id="path222"
         style="fill:#17282f;fill-opacity:1;fill-rule:nonzero;stroke:none"
         d="m 2897.87,1322.07 c 0.01,0 4.28,1.51 12.16,4.22 55.06,18.96 285.85,96.38 443.61,120.16 42.63,6.43 82.54,9.05 119.1,9.05 68.17,0 124.7,-9.11 165.37,-19.6 20.33,-5.24 36.7,-10.83 48.52,-15.76 5.91,-2.46 10.68,-4.76 14.18,-6.73 3.49,-1.93 5.78,-3.69 6.33,-4.35 l 7.4,6.73 c -2.05,2.2 -4.85,4.08 -8.84,6.34 -13.81,7.72 -41.65,18.43 -81.38,27.38 -39.71,8.93 -91.15,15.99 -151.58,15.99 -37.04,0 -77.45,-2.65 -120.59,-9.16 -182,-27.49 -457.45,-124.8 -457.61,-124.84 l 3.33,-9.43" /><path
         id="path224"
         style="fill:#17282f;fill-opacity:1;fill-rule:nonzero;stroke:none"
         d="m 2895.7,1242.36 c 0.01,0 4.35,1.54 12.33,4.3 55.84,19.34 289.57,98.2 444.76,121.06 40.37,5.95 78.24,8.39 113.09,8.39 71.38,0 130.15,-10.25 172.05,-21.63 20.94,-5.68 37.66,-11.65 49.58,-16.72 5.95,-2.54 10.71,-4.85 14.14,-6.76 3.4,-1.84 5.61,-3.55 5.8,-3.84 l 7.4,6.73 c -1.92,2.03 -4.47,3.66 -8.34,5.85 -13.38,7.42 -41.72,18.89 -82.76,28.67 -41.01,9.75 -94.57,17.7 -157.87,17.7 -35.32,0 -73.67,-2.48 -114.55,-8.5 -179.14,-26.44 -458.81,-125.79 -458.97,-125.83 l 3.34,-9.42" /><path
         id="path226"
         style="fill:#17282f;fill-opacity:1;fill-rule:nonzero;stroke:none"
         d="m 2893.53,1162.64 c 0.01,0.01 4.41,1.58 12.51,4.39 56.6,19.71 293.29,100.02 445.88,121.94 38.39,5.53 74.43,7.82 107.74,7.82 74.48,0 135.36,-11.44 178.35,-23.73 21.49,-6.14 38.51,-12.5 50.48,-17.72 5.98,-2.61 10.7,-4.93 14.04,-6.77 1.67,-0.92 2.99,-1.72 3.92,-2.34 l 1.05,-0.76 0.25,-0.21 h 0.02 l 7.4,6.72 c -0.97,1.03 -1.9,1.7 -3.17,2.57 -4.65,3.08 -13.61,7.67 -27.02,13.11 -40.11,16.22 -119.13,39.12 -225.32,39.13 -33.77,0 -70.29,-2.32 -109.16,-7.92 -176.27,-25.39 -460.17,-126.77 -460.33,-126.81 l 3.36,-9.42" /><path
         id="path228"
         style="fill:#17282f;fill-opacity:1;fill-rule:nonzero;stroke:none"
         d="m 2891.35,1082.92 c 0.01,0 4.48,1.6 12.69,4.46 57.38,20.02 297.05,101.56 447.03,122.86 h -0.02 c 36.35,5.04 70.54,7.14 102.28,7.14 77.69,0 140.73,-12.62 184.83,-25.81 22.04,-6.6 39.35,-13.33 51.36,-18.69 6,-2.67 10.68,-5 13.92,-6.77 1.62,-0.88 2.88,-1.63 3.74,-2.18 l 0.92,-0.63 0.16,-0.12 1.29,1.52 -1.47,-1.34 0.18,-0.18 1.29,1.52 -1.47,-1.34 7.4,6.73 c -1.02,1.06 -1.73,1.48 -2.91,2.26 -4.19,2.68 -13.01,7.28 -26.52,12.91 -40.41,16.82 -121.93,42.12 -232.72,42.12 -32.19,0 -66.83,-2.13 -103.65,-7.23 l -0.04,-0.01 h 0.02 c -173.34,-24.69 -461.5,-127.77 -461.67,-127.81 l 3.36,-9.41" /><path
         id="path230"
         style="fill:#17282f;fill-opacity:1;fill-rule:nonzero;stroke:none"
         d="m 2889.18,1003.2 c 0.01,0.01 4.55,1.64 12.86,4.55 58.15,20.42 300.76,103.47 448.17,123.76 h -0.01 c 34.79,4.73 67.56,6.72 98.09,6.72 80.56,0 145.45,-13.89 190.42,-28.06 22.48,-7.08 39.99,-14.23 51.96,-19.74 5.98,-2.75 10.59,-5.09 13.72,-6.79 1.56,-0.85 2.76,-1.54 3.55,-2.03 l 0.83,-0.53 0.07,-0.05 2.24,2.88 -2.69,-2.45 0.45,-0.43 2.24,2.88 -2.69,-2.45 7.4,6.73 -1.36,1.13 c -1.36,0.93 -3.79,2.35 -7.68,4.39 -26.9,14.05 -119.9,54.51 -258.46,54.52 -30.96,0 -64.19,-2.02 -99.44,-6.81 h -0.01 c -170.49,-23.55 -462.87,-128.77 -463.05,-128.81 l 3.39,-9.41" /><path
         id="path232"
         style="fill:#17282f;fill-opacity:1;fill-rule:nonzero;stroke:none"
         d="m 2887.01,923.492 c 0.01,0 4.61,1.668 13.04,4.637 58.91,20.812 304.46,105.371 449.29,124.651 33.41,4.45 64.91,6.34 94.33,6.34 83.36,0 150,-15.19 195.77,-30.34 22.88,-7.58 40.53,-15.15 52.44,-20.81 5.95,-2.83 10.47,-5.18 13.47,-6.81 1.51,-0.81 2.64,-1.449 3.38,-1.879 l 1.07,-0.633 5.19,8.552 c -0.51,0.31 -102.15,61.91 -271.32,61.92 -29.85,0 -61.8,-1.92 -95.65,-6.43 -167.66,-22.41 -464.23,-129.76 -464.41,-129.799 l 3.4,-9.399" /><path
         id="path234"
         style="fill:#17282f;fill-opacity:1;fill-rule:nonzero;stroke:none"
         d="m 4534.83,333.332 c 24.4,-5.113 44.22,-9.57 57.94,-12.75 13.71,-3.191 21.27,-5.082 21.29,-5.082 l 2.43,9.699 c -0.05,0.012 -30.65,7.66 -79.61,17.91 l -2.05,-9.777" /><path
         id="path236"
         style="fill:#17282f;fill-opacity:1;fill-rule:nonzero;stroke:none"
         d="m 3772.79,498.582 c 16.55,-19.223 29.22,-35.93 37.73,-47.832 4.26,-5.941 7.47,-10.691 9.62,-13.93 1.07,-1.621 1.88,-2.871 2.41,-3.699 l 0.79,-1.25 2.21,-3.59 3.92,1.578 c 0,0 0.59,0.243 1.82,0.723 18.37,7.129 173.58,64.949 363.11,64.93 8.92,0 17.91,-0.133 26.97,-0.391 60.03,-1.75 105.13,-34.762 147.43,-70.562 42.27,-35.637 81.22,-74.157 130.15,-83.938 l 1.93,9.809 c -44.75,8.691 -83.07,45.64 -125.62,81.769 -42.53,35.961 -89.79,71.02 -153.6,72.91 -9.16,0.27 -18.25,0.403 -27.26,0.403 -204.31,-0.02 -368.33,-66.25 -368.68,-66.371 l 1.87,-4.641 4.26,2.629 c -0.11,0.16 -17.92,29.019 -51.49,67.98 l -7.57,-6.527" /><path
         id="path238"
         style="fill:#17282f;fill-opacity:1;fill-rule:nonzero;stroke:none"
         d="m 3666.89,598.68 c 30.93,-23.438 57.67,-48.289 79.85,-71.45 l 7.22,6.922 c -22.48,23.477 -49.6,48.68 -81.03,72.5 l -6.04,-7.972" /><path
         id="path240"
         style="fill:#17282f;fill-opacity:1;fill-rule:nonzero;stroke:none"
         d="m 3075.04,685.531 c 39.01,10.649 122.72,27.43 220.96,27.418 75.55,0 159.7,-9.91 238.87,-39.949 49.86,-18.91 94.09,-45.559 132.02,-74.32 l 6.04,7.972 c -38.53,29.219 -83.57,56.379 -134.51,75.7 -80.7,30.597 -166.01,40.589 -242.42,40.597 -99.4,-0.008 -183.73,-16.898 -223.59,-27.769 l 2.63,-9.649" /><path
         id="path242"
         style="fill:#17282f;fill-opacity:1;fill-rule:nonzero;stroke:none"
         d="m 3562.32,624.66 c -61.06,22.262 -152.15,45.192 -272.48,48.051 -5.37,0.129 -10.89,0.191 -16.56,0.191 -124.55,-0.023 -320.07,-30.05 -484.75,-60.05 C 2623.88,582.84 2490.25,552.84 2490.21,552.84 l 2.19,-9.758 c 0.02,0 8.33,1.867 23.41,5.137 52.78,11.472 188.19,40.16 337.42,65.972 149.19,25.809 312.35,48.731 420.05,48.711 5.6,0 11.04,-0.062 16.32,-0.191 119.18,-2.84 209.16,-25.531 269.29,-47.449 l 3.43,9.398" /><path
         id="path244"
         style="fill:#17282f;fill-opacity:1;fill-rule:nonzero;stroke:none"
         d="m 3654.71,580.57 c -0.21,0.149 -16.18,11.262 -47.65,25.75 l -4.18,-9.09 c 15.43,-7.101 27.02,-13.351 34.71,-17.808 3.85,-2.231 6.73,-4.012 8.63,-5.231 0.95,-0.601 1.66,-1.07 2.12,-1.382 l 0.65,-0.438 5.72,8.199" /><path
         id="path246"
         style="fill:#17282f;fill-opacity:1;fill-rule:nonzero;stroke:none"
         d="m 3616.5,419.52 -1511.1,-72.641 0.48,-9.988 1511.1,72.64" /><path
         id="path248"
         style="fill:#17282f;fill-opacity:1;fill-rule:nonzero;stroke:none"
         d="m 3758.66,426.359 -82.51,-3.968 0.48,-9.981 82.51,3.961" /><path
         id="path250"
         style="fill:#17282f;fill-opacity:1;fill-rule:nonzero;stroke:none"
         d="m 2489.28,265.77 88.09,2.23 -0.25,9.992 -88.09,-2.222" /><path
         id="path252"
         style="fill:#17282f;fill-opacity:1;fill-rule:nonzero;stroke:none"
         d="m 1740.14,246.809 698.57,17.671 -0.26,10 -698.56,-17.679" /><path
         id="path254"
         style="fill:#17282f;fill-opacity:1;fill-rule:nonzero;stroke:none"
         d="m 3474.8,223.051 77.61,2.558 -0.33,9.993 -77.61,-2.563" /><path
         id="path256"
         style="fill:#17282f;fill-opacity:1;fill-rule:nonzero;stroke:none"
         d="m 2429.04,188.52 983.5,32.472 -0.33,9.988 -983.5,-32.468" /><path
         id="path258"
         style="fill:#17282f;fill-opacity:1;fill-rule:nonzero;stroke:none"
         d="m 3132.89,306.242 -206.09,-7.062 0.34,-9.989 206.09,7.059" /><path
         id="path260"
         style="fill:#17282f;fill-opacity:1;fill-rule:nonzero;stroke:none"
         d="m 3700.44,325.68 -511.13,-17.5 0.34,-10 511.13,17.5" /><path
         id="path262"
         style="fill:#17282f;fill-opacity:1;fill-rule:nonzero;stroke:none"
         d="m 2177.52,181.281 71.33,1.93 -0.27,10 -71.33,-1.941" /><path
         id="path264"
         style="fill:#17282f;fill-opacity:1;fill-rule:nonzero;stroke:none"
         d="m 1469.91,162.02 663.13,18.05 -0.27,9.993 -663.13,-18.043" /><path
         id="path266"
         style="fill:#17282f;fill-opacity:1;fill-rule:nonzero;stroke:none"
         d="m 2657.24,2371.88 c 0,0 146.99,193.31 239.62,273.86 92.63,80.54 251.71,207.4 316.14,207.4 64.44,0 80.55,-40.27 84.57,-54.36 4.03,-14.1 58.4,-217.48 58.4,-227.55 0,-10.07 -56.38,-26.17 -60.41,-14.09 -4.03,12.08 -28.19,185.25 -38.25,217.47 -10.07,32.22 -8.06,50.34 -84.58,18.12 -76.52,-32.21 -302.05,-273.85 -348.36,-330.23 -46.31,-56.38 -90.61,-114.78 -90.61,-114.78 0,0 -54.37,24.16 -76.52,24.16" /><path
         id="path268"
         style="fill:#17282f;fill-opacity:1;fill-rule:nonzero;stroke:none"
         d="m 2657.24,2371.88 3.98,-3.02 c 0,0 2.28,3 6.47,8.43 14.68,19.02 52.66,67.7 97.06,120.39 44.39,52.68 95.27,109.41 135.39,144.29 46.22,40.19 109.06,91.96 168.24,133.58 29.58,20.81 58.26,39.08 83.36,52.07 25.07,13.02 46.75,20.6 61.26,20.52 31.2,-0.04 49.83,-9.61 61.52,-20.54 11.67,-10.96 16.38,-23.63 18.25,-30.2 v 0 c 1.97,-6.91 16.59,-61.35 30.68,-115.17 7.04,-26.92 13.96,-53.72 19.11,-74.39 2.58,-10.33 4.71,-19.13 6.19,-25.63 0.74,-3.24 1.32,-5.92 1.7,-7.87 0.19,-0.98 0.34,-1.78 0.42,-2.36 l 0.09,-0.65 0.01,-0.15 0.79,0.05 h -0.79 v -0.05 l 0.79,0.05 h -0.79 1.61 l -1.48,0.71 -0.13,-0.71 h 1.61 l -1.48,0.71 -0.23,-0.31 c -0.69,-0.87 -3.07,-2.63 -6.31,-4.23 -9.75,-4.99 -27.29,-9.65 -37.63,-9.57 -2.63,-0.02 -4.76,0.31 -5.88,0.72 l -0.89,0.44 -0.15,-0.18 0.18,0.13 -0.03,0.05 -0.15,-0.18 0.18,0.13 -0.7,-0.5 0.82,0.28 -0.12,0.22 -0.7,-0.5 0.82,0.28 c -0.12,0.31 -0.46,1.66 -0.83,3.51 -2.94,14.2 -9.93,60.15 -17.31,106.06 -3.7,22.99 -7.51,46.01 -10.98,65.22 -3.5,19.25 -6.6,34.5 -9.11,42.59 -3.15,9.95 -5.03,18.85 -9.22,26.17 -2.1,3.64 -4.96,6.91 -8.86,9.12 -3.9,2.21 -8.6,3.27 -14.09,3.27 -12.84,-0.07 -30.63,-5.37 -59.12,-17.32 -20.24,-8.58 -48.68,-29.88 -81.52,-58.08 -98.3,-84.58 -233.71,-230.95 -268.76,-273.59 -46.39,-56.48 -90.72,-114.9 -90.74,-114.93 l 3.99,-3.02 2.03,4.57 c -0.06,0.02 -13.73,6.1 -30.26,12.2 -8.26,3.05 -17.25,6.11 -25.66,8.44 -8.45,2.31 -16.22,3.93 -22.63,3.95 v -5 l 3.98,-3.02 -3.98,3.02 v -5 c 4.66,0.02 11.99,-1.38 19.97,-3.59 12.01,-3.32 25.71,-8.36 36.33,-12.58 5.32,-2.1 9.88,-4 13.1,-5.37 3.22,-1.36 5.08,-2.19 5.09,-2.19 l 3.62,-1.61 2.39,3.16 c 0.01,0.01 2.76,3.63 7.63,9.98 14.61,19.04 48.19,62.43 82.86,104.64 22.94,27.93 90.92,102.47 162.52,173.81 35.81,35.69 72.56,70.61 105.04,98.55 32.41,27.93 60.86,48.92 78.88,56.44 27.98,11.83 45.28,16.6 55.24,16.54 4.27,-0.01 7.07,-0.79 9.14,-1.97 3.06,-1.73 5.23,-4.78 7.3,-9.92 2.04,-5.07 3.76,-11.87 6.18,-19.65 2.36,-7.49 5.8,-24.41 9.51,-45.26 5.6,-31.35 12,-71.97 17.36,-105.88 2.69,-16.96 5.12,-32.24 7.07,-43.87 0.97,-5.82 1.83,-10.73 2.54,-14.51 0.74,-3.82 1.24,-6.3 1.81,-8.04 0.56,-1.7 1.64,-3.17 2.88,-4.2 1.88,-1.57 3.99,-2.35 6.18,-2.86 2.2,-0.49 4.55,-0.67 7.05,-0.67 9.77,0.03 22.27,2.86 32.83,6.68 5.28,1.93 10.01,4.08 13.73,6.47 1.87,1.21 3.49,2.47 4.85,4 1.32,1.52 2.59,3.5 2.63,6.25 -0.03,1.55 -0.29,2.81 -0.7,5.02 -3.08,15.75 -16.55,68.15 -29.8,118.61 -13.23,50.42 -26.16,98.55 -28.09,105.29 v 0 c -2.15,7.53 -7.51,22.03 -21.01,34.74 -13.48,12.73 -35.12,23.29 -68.37,23.25 -17.7,-0.07 -40.07,-8.36 -65.85,-21.64 -77.1,-39.92 -183.91,-126.45 -253.57,-186.99 -46.77,-40.68 -106.7,-109.22 -155.12,-167.72 -48.39,-58.48 -85.18,-106.85 -85.2,-106.88 l -6.11,-8.03 h 10.09 v 5" /><path
         id="path270"
         style="fill:#ffffff;fill-opacity:1;fill-rule:nonzero;stroke:none"
         d="m 5145.46,2174.83 c -4.75,6.84 -11.01,14.71 -15.47,15.83 -7.06,1.76 -54.31,-78.41 -65.89,-98.27 13.39,14.64 21.59,23.08 21.59,21.75 0,-6.05 -24.17,-124.85 -46.31,-181.23 -22.15,-56.38 -16.11,-82.56 6.04,-80.55 22.15,2.01 52.35,102.7 70.48,159.08 13.37,41.59 26.7,113.78 29.56,163.39" /><path
         id="path272"
         style="fill:#17282f;fill-opacity:1;fill-rule:nonzero;stroke:none"
         d="m 5145.46,2174.83 4.11,2.85 c -2.45,3.53 -5.3,7.35 -8.27,10.59 -1.48,1.62 -3,3.1 -4.61,4.35 -1.62,1.24 -3.3,2.32 -5.48,2.89 l -1.46,0.18 c -2.59,-0.13 -3.72,-1.09 -4.91,-1.9 -2.11,-1.61 -4.1,-3.83 -6.51,-6.78 -8.25,-10.2 -20.4,-29.04 -31.84,-47.54 -11.41,-18.47 -21.99,-36.48 -26.71,-44.56 l -23.56,-40.41 31.57,34.52 c 6.21,6.79 11.3,12.24 14.91,15.93 1.8,1.84 3.24,3.25 4.2,4.12 l 0.94,0.8 0.01,0.01 -1.59,2.42 1.2,-2.63 0.39,0.21 -1.59,2.42 1.2,-2.63 -1.88,4.13 v -4.53 c 1.18,0.04 1.6,0.3 1.88,0.4 l -1.88,4.13 v -4.53 4.9 l -3.72,-3.18 c 1.09,-1.32 2.85,-1.77 3.72,-1.72 v 4.9 l -3.72,-3.18 3.69,3.15 h -4.86 c 0.01,-0.62 0.1,-1.85 1.17,-3.15 l 3.69,3.15 h -4.86 1.64 l -1.63,0.08 -0.01,-0.08 h 1.64 l -1.63,0.08 c 0,-0.26 -0.4,-3.14 -1.13,-7.06 -5.05,-28.1 -25.9,-124.26 -44.85,-172.42 -9.71,-24.77 -14.21,-43.93 -14.24,-58.24 0.02,-8.77 1.69,-15.9 5.63,-21.22 3.93,-5.36 10.28,-8.11 17.01,-8.03 0.9,0 1.82,0.05 2.75,0.13 4.66,0.48 8.36,3.13 11.77,6.59 5.95,6.14 11.49,15.66 17.17,27.48 16.88,35.36 33.95,91.48 45.85,128.46 13.55,42.23 26.87,114.43 29.79,164.63 l 0.1,1.72 -0.98,1.42 -4.11,-2.85 -4.99,0.28 c -2.81,-49.01 -16.14,-121.18 -29.33,-162.14 -9.07,-28.23 -21.14,-67.43 -33.63,-99.65 -6.24,-16.1 -12.6,-30.47 -18.59,-40.65 -2.98,-5.09 -5.89,-9.12 -8.43,-11.72 -2.55,-2.65 -4.64,-3.59 -5.52,-3.61 l -1.85,-0.09 c -4.43,0.09 -6.89,1.33 -9,4.02 -2.09,2.74 -3.65,7.73 -3.64,15.23 -0.02,12.19 4.08,30.52 13.55,54.58 11.26,28.69 22.83,72.55 31.68,110.18 4.42,18.8 8.14,36.02 10.76,48.95 1.31,6.46 2.35,11.84 3.06,15.84 0.36,2 0.64,3.64 0.83,4.93 0.19,1.35 0.32,2.09 0.33,3.16 0,0.71 -0.11,2.01 -1.22,3.35 -1.13,1.36 -2.95,1.84 -3.89,1.78 -1.69,-0.07 -2.16,-0.48 -2.65,-0.69 l -1.77,-1.25 c -1.77,-1.48 -4.26,-3.97 -7.77,-7.62 -3.47,-3.63 -7.85,-8.34 -12.98,-13.95 l 3.69,-3.37 4.32,-2.52 c 5.71,9.8 20.15,34.34 34.09,56.36 6.96,11.01 13.81,21.39 19.32,28.9 2.74,3.75 5.17,6.79 6.97,8.73 0.9,0.96 1.65,1.65 2.05,1.94 l 0.2,0.14 0.01,0.01 -1.31,2.57 v -2.83 c 0.91,0.02 1.24,0.24 1.31,0.26 l -1.31,2.57 v -2.83 3.99 l -0.97,-3.87 0.97,-0.12 v 3.99 l -0.97,-3.87 c 0.04,0.01 0.82,-0.32 1.77,-1.08 3,-2.28 7.4,-7.8 10.8,-12.75 l 4.11,2.85 -4.99,0.28 4.99,-0.28" /><path
         id="path274"
         style="fill:#17282f;fill-opacity:1;fill-rule:nonzero;stroke:none"
         d="m 4397.02,1471.78 c -12.08,-104.7 -36.24,-165.11 -72.49,-213.44 -36.24,-48.33 -78.53,-70.48 -191.29,-60.41 -112.77,10.07 -197.34,52.35 -275.87,108.74 -78.53,56.37 -104.71,130.89 -134.91,201.35 -30.21,70.48 -82.57,211.44 -52.36,300.04 30.2,88.61 118.81,66.45 118.81,66.45 0,0 74.5,-16.1 80.54,-18.12 6.04,-2.02 451.06,-132.9 471.2,-163.1 20.13,-30.21 68.45,-116.8 56.37,-221.51 z m -964.53,412.8 c 0,0 -4.03,-16.11 -16.11,-34.23 -12.08,-18.13 -92.62,-146.99 -142.97,-187.27 -50.34,-40.27 -108.74,-74.51 -169.14,-68.46 -60.41,6.04 -215.47,64.43 -330.24,155.05 -114.78,90.61 -130.89,209.42 -118.8,324.19 12.08,114.78 52.35,193.32 112.76,205.4 60.41,12.08 259.76,-38.27 396.68,-110.76 136.93,-72.49 253.72,-161.09 261.78,-191.3 8.05,-30.2 6.04,-92.62 6.04,-92.62 z m 1711.59,332.25 c -8.04,36.25 -60.41,-10.06 -82.56,-42.29 -22.14,-32.21 -122.83,-140.95 -179.2,-195.31 -56.39,-54.38 -267.82,-235.6 -289.98,-251.71 -22.14,-16.12 -48.32,-44.3 -64.43,-46.32 -16.11,-2.01 -58.4,0 -78.53,12.09 -20.14,12.08 -30.21,34.23 -126.86,86.58 -96.65,52.35 -515.49,173.17 -545.7,175.19 -30.2,2.01 -54.36,-28.2 -96.65,-46.31 -42.29,-18.13 -112.77,-22.15 -142.97,4.02 -30.21,26.18 -66.45,92.63 -86.59,140.96 -20.14,48.33 -52.35,60.41 -80.54,76.51 -28.19,16.11 -366.48,165.12 -428.91,185.26 -62.42,20.14 -124.85,34.23 -153.03,36.25 -28.2,2.01 -54.37,-4.03 -54.37,-4.03 0,0 -4.03,-6.04 -20.14,6.04 -16.11,12.08 -68.46,34.23 -84.57,2.01 -16.11,-32.21 -40.27,-106.72 -26.18,-134.91 14.09,-28.19 14.09,-28.19 14.09,-28.19 0,0 -14.09,-181.23 -8.05,-243.65 6.04,-62.42 54.37,-142.97 94.64,-191.3 40.27,-48.33 201.37,-138.94 320.17,-167.13 118.81,-28.19 191.3,-12.09 223.52,10.07 32.21,22.15 130.88,132.9 155.05,159.07 24.16,26.19 22.14,42.29 100.68,18.13 78.53,-24.16 106.72,-80.55 120.82,-122.83 14.09,-42.29 66.45,-211.44 108.74,-265.8 42.28,-54.37 102.69,-118.81 205.39,-163.11 102.69,-44.3 171.15,-78.53 267.81,-66.45 96.65,12.09 149.01,56.38 179.21,108.74 30.21,52.35 50.34,157.06 60.41,189.28 10.07,32.22 42.29,52.36 42.29,52.36 0,0 40.27,18.11 52.35,46.3 12.08,28.2 106.73,114.78 106.73,114.78 0,0 153.04,120.82 211.43,187.28 58.39,66.44 227.54,261.76 227.54,255.73 0,-6.05 -24.17,-124.85 -46.31,-181.23 -22.15,-56.38 -16.11,-82.56 6.04,-80.55 22.15,2.01 52.35,102.7 70.48,159.08 18.11,56.38 36.24,169.15 28.18,205.39" /><path
         id="path276"
         style="fill:#17282f;fill-opacity:1;fill-rule:nonzero;stroke:none"
         d="m 4397.02,1471.78 -4.96,0.58 c -12.06,-104.23 -35.9,-163.48 -71.53,-211.02 -14.98,-19.97 -30.62,-34.94 -51.9,-45.14 -21.29,-10.19 -48.54,-15.65 -86.8,-15.66 -14.41,0 -30.38,0.78 -48.15,2.37 -111.72,10 -195.25,51.74 -273.39,107.82 -77.17,55.4 -102.92,128.49 -133.24,199.26 -23.75,55.31 -61.09,154.51 -61.03,236.08 0,21.83 2.66,42.35 8.81,60.38 9.76,28.5 25.36,44.54 41.93,53.85 16.58,9.29 34.36,11.68 48.05,11.67 6.83,0 12.63,-0.59 16.67,-1.18 2.03,-0.29 3.61,-0.58 4.68,-0.8 l 1.19,-0.25 0.34,-0.08 0.08,-0.02 0.08,-0.02 c 0.04,-0.01 18.62,-4.02 37.99,-8.3 9.68,-2.13 19.55,-4.33 27.36,-6.12 3.91,-0.89 7.3,-1.69 9.88,-2.31 2.54,-0.61 4.44,-1.12 4.79,-1.24 h -0.01 c 0.62,-0.2 2.58,-0.79 6.22,-1.88 26.97,-8.08 138.5,-41.3 245.61,-76.04 53.55,-17.37 105.99,-35.11 146.14,-50.25 20.06,-7.56 37.06,-14.48 49.5,-20.32 6.21,-2.92 11.28,-5.57 14.95,-7.83 3.66,-2.19 5.93,-4.27 6.21,-4.81 17.64,-26.42 57.49,-97.41 57.44,-185.29 0,-10.72 -0.58,-21.69 -1.87,-32.87 l 4.96,-0.58 4.97,-0.57 c 1.33,11.58 1.94,22.93 1.94,34.02 -0.04,90.95 -40.87,163.4 -59.12,190.83 -2.23,3.19 -5.51,5.46 -10.14,8.3 -8.64,5.18 -22.03,11.29 -39.14,18.26 -59.77,24.32 -164.58,58.49 -255.21,86.86 -45.31,14.18 -87.05,26.9 -117.77,36.18 -15.36,4.64 -27.97,8.42 -36.89,11.09 -4.46,1.33 -8,2.39 -10.5,3.14 -2.46,0.73 -4.04,1.21 -4.12,1.25 h -0.01 c -1.16,0.38 -2.91,0.81 -5.6,1.47 -18.46,4.47 -75.44,16.78 -75.47,16.79 l -1.05,-4.89 1.21,4.85 c -0.28,0.07 -10.49,2.61 -25.31,2.61 -14.81,0 -34.31,-2.53 -52.93,-12.94 -18.63,-10.38 -36.14,-28.79 -46.51,-59.35 -6.61,-19.4 -9.34,-40.98 -9.35,-63.61 0.07,-84.45 37.94,-184.13 61.84,-240.01 30.1,-70.17 56.7,-146.1 136.59,-203.45 78.92,-56.7 164.54,-99.53 278.34,-109.66 18.01,-1.61 34.27,-2.41 49.04,-2.41 39.17,0 68.03,5.6 91.11,16.64 23.09,11.03 40.09,27.46 55.59,48.16 36.88,49.11 61.35,110.69 73.46,215.87 z m -964.53,412.8 -4.85,1.21 -0.16,-0.59 c -0.83,-2.99 -5.1,-16.84 -15.26,-32.08 -6.13,-9.2 -29.19,-45.79 -57.06,-85.21 -27.78,-39.36 -60.57,-81.55 -84.87,-100.92 -46.08,-36.92 -98.6,-68.15 -152,-68.07 -4.5,0 -9.01,0.22 -13.52,0.67 -29.18,2.88 -82.94,18.87 -143.22,45.41 -60.34,26.54 -127.49,63.63 -184.42,108.59 -93.25,73.73 -120.18,165.51 -120.28,259.57 0,20.04 1.24,40.16 3.35,60.18 5.98,56.93 18.99,104.7 37.69,139.36 18.74,34.72 42.82,56.01 71.08,61.65 5.57,1.12 12.72,1.7 21.11,1.7 37.85,0.03 100.54,-11.7 168.77,-31.61 68.27,-19.89 142.28,-47.95 203.48,-80.36 68.24,-36.12 131.51,-76.29 178.59,-111.1 23.53,-17.4 43.03,-33.48 57.02,-46.94 6.99,-6.72 12.6,-12.8 16.62,-17.98 4.02,-5.15 6.39,-9.5 7.06,-12.14 5.13,-19.05 6.13,-53.53 6.09,-74.05 0,-10.29 -0.22,-17.11 -0.22,-17.13 l 5,-0.16 -4.85,1.21 4.85,-1.21 5,-0.16 c 0,0.04 0.22,7.02 0.22,17.45 -0.03,20.94 -0.82,55.39 -6.43,76.62 -1.34,4.91 -4.39,9.94 -8.82,15.7 -15.53,19.94 -49.16,48.4 -94.16,80.24 -44.98,31.78 -101.18,66.67 -161.29,98.49 -62.03,32.84 -136.53,61.06 -205.36,81.12 -68.87,20.05 -131.86,31.98 -171.57,32.01 -8.85,-0.01 -16.56,-0.59 -23.07,-1.89 -32.15,-6.44 -58.41,-30.46 -77.93,-66.72 -19.56,-36.32 -32.73,-85.21 -38.83,-143.05 -2.14,-20.31 -3.4,-40.78 -3.4,-61.23 -0.1,-95.85 28.12,-191.76 124.08,-267.42 57.84,-45.66 125.61,-83.07 186.59,-109.89 61.04,-26.81 115.02,-43.05 146.25,-46.21 4.86,-0.48 9.7,-0.72 14.52,-0.72 57.4,0.08 111.46,32.88 158.25,70.26 26.04,20.9 58.69,63.28 86.79,102.96 28.01,39.61 51.26,76.51 57.21,85.44 12.55,18.84 16.7,35.43 16.8,35.78 l 0.13,0.52 0.02,0.54 z m 1711.59,332.25 4.88,1.09 c -1.18,5.35 -3.35,9.71 -6.71,12.75 -3.35,3.06 -7.73,4.42 -12.02,4.39 -6.19,-0.04 -12.47,-2.39 -18.96,-5.93 -19.34,-10.74 -41.05,-33.22 -53.87,-51.75 -5.29,-7.72 -15.7,-20.54 -29.08,-36.03 -40.16,-46.56 -107.37,-117.92 -149.48,-158.52 -27.99,-27.01 -94.98,-85.95 -157.61,-140.02 -31.33,-27.05 -61.58,-52.9 -85.38,-72.99 -23.76,-20.06 -41.25,-34.49 -46.45,-38.26 -11.41,-8.31 -23.52,-19.43 -34.71,-28.62 -5.58,-4.6 -10.93,-8.7 -15.69,-11.68 -4.74,-3 -8.93,-4.79 -11.71,-5.1 -3.16,-0.4 -7.68,-0.64 -12.93,-0.64 -9.59,0 -21.67,0.8 -33.13,2.76 -11.45,1.92 -22.33,5.09 -29.28,9.3 -9.16,5.43 -16.83,13.98 -34.2,27.81 -17.37,13.8 -44.34,32.6 -92.85,58.88 -24.72,13.37 -69.06,30.72 -122.52,49.49 -80.13,28.13 -180.49,59.27 -263.7,83.59 -41.61,12.15 -78.92,22.6 -107.28,30.11 -14.19,3.76 -26.13,6.78 -35.28,8.92 -9.22,2.14 -15.36,3.4 -18.97,3.67 -1.07,0.07 -2.14,0.1 -3.2,0.1 -16.22,-0.05 -30.23,-7.96 -45.07,-17.41 -14.87,-9.52 -30.8,-20.88 -50.68,-29.4 -20.35,-8.74 -48.06,-14.21 -74.05,-14.19 -26.01,-0.06 -50.21,5.59 -63.68,17.4 -14.33,12.38 -30.86,35.26 -46.04,60.94 -15.21,25.69 -29.23,54.23 -39.2,78.16 -10.36,24.91 -24.11,40.86 -38.78,52.35 -14.67,11.51 -30.06,18.66 -43.9,26.58 -3.87,2.21 -12.19,6.26 -24.32,11.95 -42.35,19.84 -129.93,58.81 -213.81,95.05 -41.95,18.12 -82.95,35.55 -116.92,49.57 -33.98,14.02 -60.81,24.59 -74.8,29.11 -62.78,20.22 -125.13,34.36 -154.22,36.47 v 0 c -4.16,0.3 -8.27,0.43 -12.25,0.43 -23.87,-0.01 -43.38,-4.53 -43.6,-4.57 l -1.93,-0.45 -1.1,-1.65 1.93,-1.29 -1.23,2.05 -0.7,-0.76 1.93,-1.29 -1.23,2.05 0.25,-0.42 -0.19,0.45 -0.06,-0.03 0.25,-0.42 -0.19,0.45 -0.63,-0.07 c -1.31,-0.05 -5.52,0.83 -13.11,6.55 v 0 c -5.5,4.11 -14.17,8.9 -24.31,12.82 -10.14,3.9 -21.67,6.89 -32.83,6.91 -6.94,-0.01 -13.78,-1.18 -19.93,-4.26 -6.14,-3.06 -11.45,-8.13 -14.97,-15.22 -13,-26.17 -30.85,-77.82 -30.96,-113.93 0.02,-9.7 1.27,-18.39 4.78,-25.46 v 0 c 14.09,-28.19 14.09,-28.19 14.09,-28.19 l 4.47,2.24 -4.98,0.39 c 0,-0.07 -9.57,-122.93 -9.57,-201.52 0,-16.87 0.43,-31.7 1.53,-43 3.14,-32.26 16.99,-68.43 35.03,-102.78 18.06,-34.33 40.36,-66.78 60.74,-91.24 10.62,-12.71 28.46,-27.55 51.3,-43.44 68.47,-47.57 181.49,-103.94 271.56,-125.35 45.57,-10.82 84.48,-15.19 117.07,-15.19 52.99,0.03 89.27,11.49 110.43,26 8.61,5.94 20.82,17.07 35.09,31.07 42.66,41.91 102.73,109.16 120.8,128.73 8.16,8.88 13.34,16.38 18.72,21.08 5.4,4.65 10.61,7.21 21.44,7.31 11.34,0.02 28.53,-3.37 55.38,-11.65 38.37,-11.82 64.12,-31.32 82.2,-53.04 18.06,-21.72 28.4,-45.76 35.34,-66.59 7.02,-21.06 23.67,-74.03 43.85,-128.53 10.1,-27.26 21.09,-54.92 32.24,-79.26 11.17,-24.35 22.44,-45.33 33.45,-59.5 42.51,-54.68 103.67,-119.93 207.36,-164.63 88.36,-38.08 152.17,-69.28 231.27,-69.31 12.62,0 25.62,0.79 39.14,2.48 97.94,12.14 152.17,57.67 182.92,111.21 15.54,26.98 28.12,66.45 38.25,103.37 10.09,36.85 17.7,71.26 22.61,86.92 4.64,14.94 14.67,27.47 23.63,36.17 4.47,4.35 8.65,7.74 11.69,10.03 1.52,1.15 2.76,2.01 3.6,2.59 l 0.95,0.63 0.29,0.19 -2.65,4.24 2.05,-4.56 c 0.18,0.08 10.48,4.71 22.45,13.03 11.94,8.36 25.71,20.29 32.45,35.87 2.46,5.89 10.5,16.63 20.94,28.5 15.68,17.93 36.86,39.11 54.08,55.76 8.61,8.33 16.24,15.54 21.71,20.65 5.47,5.12 8.77,8.13 8.77,8.14 l -3.37,3.69 3.1,-3.92 c 0.03,0.02 38.32,30.25 83.94,68.82 45.65,38.6 98.55,85.41 128.14,119.08 28.78,32.73 84.38,96.69 133.41,152.47 24.52,27.88 47.39,53.72 64.42,72.56 8.52,9.42 15.58,17.1 20.62,22.37 2.51,2.63 4.53,4.67 5.91,5.97 l 1.48,1.32 0.12,0.09 -1.18,1.65 0.92,-1.8 0.26,0.15 -1.18,1.65 0.92,-1.8 -2.02,3.98 v -4.44 c 1.41,0.05 1.76,0.37 2.02,0.46 l -2.02,3.98 v -4.44 4.89 l -3.72,-3.18 c 1.09,-1.32 2.85,-1.77 3.72,-1.71 v 4.89 l -3.72,-3.18 3.68,3.15 h -4.85 c 0.01,-0.62 0.1,-1.85 1.17,-3.15 l 3.68,3.15 h -4.85 1.64 l -1.63,0.08 -0.01,-0.08 h 1.64 l -1.63,0.08 c 0,-0.26 -0.4,-3.14 -1.13,-7.06 -5.05,-28.1 -25.9,-124.26 -44.85,-172.42 -9.71,-24.77 -14.21,-43.93 -14.24,-58.24 0.02,-8.77 1.69,-15.9 5.63,-21.22 3.93,-5.36 10.28,-8.11 17.01,-8.03 0.9,0 1.82,0.05 2.75,0.13 4.66,0.48 8.36,3.13 11.77,6.59 5.95,6.14 11.49,15.66 17.17,27.48 16.88,35.36 33.95,91.48 45.85,128.46 15.26,47.64 30.34,133.46 30.39,182.81 -0.01,10 -0.61,18.5 -2.09,25.2 l -4.88,-1.09 -4.88,-1.08 c 1.23,-5.48 1.86,-13.47 1.85,-23.03 0.05,-47.5 -15.03,-133.57 -29.91,-179.75 -9.07,-28.23 -21.14,-67.43 -33.63,-99.65 -6.24,-16.1 -12.6,-30.47 -18.59,-40.65 -2.98,-5.09 -5.89,-9.12 -8.43,-11.72 -2.55,-2.65 -4.64,-3.59 -5.52,-3.61 l -1.85,-0.09 c -4.43,0.09 -6.89,1.33 -9,4.02 -2.09,2.74 -3.65,7.73 -3.64,15.23 -0.02,12.19 4.08,30.52 13.55,54.58 11.26,28.69 22.83,72.55 31.68,110.18 4.42,18.8 8.14,36.02 10.76,48.95 1.31,6.46 2.35,11.84 3.06,15.84 0.36,2 0.64,3.64 0.83,4.93 0.19,1.35 0.32,2.09 0.33,3.16 0,0.71 -0.11,2.01 -1.22,3.35 -1.13,1.37 -2.95,1.84 -3.89,1.79 -1.99,-0.12 -2.37,-0.61 -2.9,-0.84 l -2.11,-1.61 c -2.62,-2.33 -6.98,-6.84 -13.07,-13.38 -42.4,-45.57 -165.13,-187.15 -213.11,-241.74 -28.79,-32.79 -81.61,-79.62 -127.08,-118.04 -22.75,-19.23 -43.67,-36.39 -58.91,-48.74 -7.62,-6.17 -13.82,-11.14 -18.11,-14.57 -4.29,-3.43 -6.66,-5.3 -6.67,-5.31 l -0.14,-0.11 -0.13,-0.12 c -0.04,-0.03 -23.74,-21.71 -49,-46.97 -12.63,-12.63 -25.66,-26.16 -36.35,-38.37 -10.71,-12.3 -19.02,-22.95 -22.6,-31.16 -5.35,-12.61 -17.76,-23.83 -28.97,-31.59 -5.59,-3.89 -10.85,-6.94 -14.68,-9.01 -1.92,-1.04 -3.48,-1.82 -4.56,-2.35 l -1.22,-0.59 -0.38,-0.17 -0.31,-0.14 -0.29,-0.18 c -0.21,-0.14 -8.52,-5.34 -18.21,-14.76 -9.66,-9.42 -20.78,-23.06 -26.2,-40.35 -5.16,-16.56 -12.66,-50.61 -22.7,-87.26 -10.01,-36.58 -22.6,-75.64 -37.27,-101.02 -29.65,-51.17 -80.13,-94.23 -175.5,-106.27 -13.12,-1.64 -25.7,-2.41 -37.9,-2.41 -76.22,-0.04 -138.59,30.19 -227.31,68.49 -101.71,43.89 -161.37,107.54 -203.43,161.59 -10.13,13 -21.27,33.55 -32.25,57.53 -33.02,72.04 -65.1,174.99 -75.69,206.78 -7.15,21.45 -17.96,46.74 -37.14,69.83 -19.17,23.08 -46.79,43.86 -86.95,56.2 -27.26,8.37 -45.07,12.06 -58.32,12.09 -12.57,0.1 -21.36,-3.76 -28.07,-9.82 -6.73,-6 -11.76,-13.5 -19.44,-21.78 -12.13,-13.15 -42.8,-47.33 -74.47,-81.02 -15.83,-16.83 -31.91,-33.53 -45.99,-47.36 -14.04,-13.82 -26.24,-24.83 -33.75,-29.97 -18.74,-12.93 -53.23,-24.26 -104.76,-24.24 -31.7,0 -69.85,4.26 -114.76,14.92 -58.75,13.92 -128.48,43.49 -188.33,75.55 -29.93,16.03 -57.41,32.68 -79.83,48.28 -22.42,15.57 -39.81,30.18 -49.33,41.63 -19.9,23.88 -41.89,55.87 -59.57,89.49 -17.7,33.62 -31.04,68.93 -33.93,99.09 -1.04,10.74 -1.49,25.36 -1.48,42.04 -0.01,38.93 2.38,89.16 4.77,129.61 1.19,20.23 2.38,38.02 3.28,50.74 0.89,12.73 1.49,20.37 1.49,20.39 l 0.11,1.38 -0.62,1.24 c 0,0 0,0 -14.1,28.19 l -0.04,0.09 0.04,-0.09 c -2.45,4.84 -3.74,12.19 -3.72,20.99 -0.1,32.99 17.48,84.8 29.9,109.46 2.66,5.26 6.18,8.55 10.52,10.75 4.35,2.19 9.62,3.2 15.44,3.2 9.33,0.01 19.91,-2.63 29.23,-6.24 9.32,-3.58 17.48,-8.15 21.91,-11.49 v 0 c 8.52,-6.36 14.38,-8.5 19.11,-8.55 2.34,-0.01 4.33,0.62 5.72,1.46 1.39,0.84 2.15,1.8 2.47,2.27 l -4.16,2.78 1.12,-4.87 0.79,0.17 c 3.78,0.81 20.77,4.14 40.56,4.14 3.77,0 7.64,-0.12 11.54,-0.4 l 0.23,-0.02 -0.23,0.02 c 27.29,-1.92 89.79,-15.97 151.86,-36.02 15.23,-4.91 48.13,-18 89,-35.03 61.34,-25.56 140.92,-60.05 207.78,-89.65 33.42,-14.8 63.68,-28.38 86.88,-39.01 23.14,-10.59 39.46,-18.37 44.3,-21.15 14.35,-8.18 29.16,-15.12 42.68,-25.76 13.52,-10.65 25.94,-24.91 35.73,-48.33 10.16,-24.4 24.33,-53.25 39.83,-79.41 15.53,-26.18 32.22,-49.6 48.09,-63.41 16.74,-14.36 42.89,-19.78 70.23,-19.84 27.38,0.01 56.05,5.62 77.99,15 21.05,9.03 37.57,20.87 52.13,30.16 14.59,9.37 27,15.89 39.68,15.84 l 2.54,-0.08 c 1.32,-0.08 4.71,-0.64 9.34,-1.63 35.2,-7.46 146.58,-38.58 260.12,-73.88 56.8,-17.65 114.19,-36.37 162.99,-53.72 48.78,-17.33 89.08,-33.37 111.2,-45.37 48.14,-26.07 74.53,-44.52 91.39,-57.91 16.87,-13.35 24.3,-21.91 35.27,-28.56 8.86,-5.28 20.6,-8.5 32.76,-10.58 12.14,-2.07 24.66,-2.9 34.8,-2.9 5.56,0 10.39,0.25 14.17,0.72 5.28,0.69 10.4,3.19 15.79,6.55 15.99,10.08 34.79,28.96 50.97,40.68 5.88,4.3 23.12,18.55 47.01,38.71 71.53,60.39 200.94,172.43 243.49,213.45 28.3,27.3 67.6,68.11 102.64,106.18 17.53,19.03 33.98,37.37 47.46,53 13.5,15.66 23.98,28.51 29.75,36.9 7.91,11.52 20.08,25.19 32.42,35.75 6.17,5.29 12.39,9.8 18.03,12.91 5.63,3.13 10.7,4.73 14.14,4.69 2.44,-0.03 3.94,-0.6 5.32,-1.81 1.36,-1.22 2.76,-3.48 3.65,-7.5 l 4.88,1.08" /><path
         id="path278"
         style="fill:#ffffff;fill-opacity:1;fill-rule:nonzero;stroke:none"
         d="m 3401.52,2061.65 1.23,1.84 -1.27,-1.81 0.04,-0.03 1.23,1.84 -1.27,-1.81 c 0.09,-0.08 17.05,-11.94 34.36,-59.99 9.05,-25.09 20.19,-58.67 38.46,-88.27 18.22,-29.57 43.96,-55.49 81.95,-63.93 8.67,-1.92 17.32,-2.77 25.82,-2.77 32.99,0.02 63.73,12.64 86.31,25.11 22.58,12.49 37.03,24.92 37.2,25.07 l -6.52,7.58 -0.59,-0.49 c -3.05,-2.54 -17.86,-14.46 -39.09,-25.66 -21.22,-11.21 -48.82,-21.63 -77.31,-21.61 -7.84,0 -15.75,0.78 -23.65,2.53 -34.5,7.68 -58.09,31.09 -75.61,59.42 -17.48,28.29 -28.48,61.16 -37.56,86.41 -18.37,51.08 -37.14,64.21 -38.18,64.89 l -5.54,-8.32" /><path
         id="path280"
         style="fill:#ffffff;fill-opacity:1;fill-rule:nonzero;stroke:none"
         d="m 3787.7,1903.89 c 0.02,0 5.05,-1.25 14.18,-3.57 31.97,-8.14 113.89,-29.39 203.4,-55.63 89.49,-26.22 186.66,-57.5 248.74,-85.49 71.05,-32.02 109.75,-61.89 131.37,-84.01 10.82,-11.07 17.38,-20.19 21.65,-26.83 2.13,-3.33 3.69,-6.03 4.98,-8.16 0.64,-1.06 1.22,-1.99 1.84,-2.86 0.65,-0.85 1.25,-1.69 2.53,-2.58 l 0.01,-0.01 c 1.71,-1.11 4.46,-2.46 8.68,-4.27 12.49,-5.3 36.02,-13.38 58.82,-13.42 12.44,0.01 24.87,2.45 34.89,9.76 l -5.92,8.07 c -7.55,-5.56 -17.79,-7.84 -28.97,-7.83 -13.6,-0.01 -28.32,3.36 -40.04,7.12 -5.86,1.88 -10.98,3.84 -14.86,5.5 -3.82,1.61 -6.63,3.08 -7.06,3.4 l 0.01,-0.01 -0.93,-1.38 1.24,1.13 -0.31,0.25 -0.93,-1.38 1.24,1.13 c -0.17,0.13 -1.22,1.72 -2.54,3.98 -4.82,8.12 -14.86,25.08 -38.78,46.47 -23.95,21.45 -61.85,47.57 -122.81,75.05 -72.01,32.44 -188.85,68.67 -287.88,96.91 -99.01,28.21 -180.1,48.36 -180.14,48.37 l -2.41,-9.71" /><path
         id="path282"
         style="fill:#ffffff;fill-opacity:1;fill-rule:nonzero;stroke:none"
         d="m 2635.8,2331.9 c 0.14,-0.13 7.48,-6.65 18.3,-13.26 10.85,-6.57 25.11,-13.4 39.82,-13.46 3.67,0 7.37,0.45 11,1.48 v 0 c 17.6,5.04 39.8,10 64.07,10 14.11,0 28.9,-1.67 43.94,-5.97 21.4,-6.11 70.52,-17.63 135.6,-37.23 65.04,-19.59 145.89,-47.21 230.2,-85.35 84.46,-38.21 136.17,-65.33 166.7,-82.84 15.26,-8.76 25.23,-15.11 31.34,-19.25 3.05,-2.07 5.14,-3.58 6.45,-4.56 l 1.39,-1.07 0.3,-0.24 0.06,-0.04 6.44,7.65 c -0.64,0.51 -39.19,32.83 -208.56,109.46 -84.84,38.38 -166.1,66.14 -231.44,85.82 -65.3,19.66 -114.85,31.3 -135.73,37.27 -16.05,4.58 -31.8,6.35 -46.69,6.35 -25.63,0 -48.75,-5.22 -66.81,-10.38 v 0 c -2.64,-0.75 -5.4,-1.1 -8.26,-1.1 -11.46,-0.06 -24.59,5.84 -34.61,12 -5.02,3.06 -9.27,6.14 -12.25,8.44 -1.5,1.15 -2.67,2.1 -3.46,2.76 l -0.89,0.76 -0.27,0.23 -6.64,-7.47" /><path
         id="path284"
         style="fill:#ffffff;fill-opacity:1;fill-rule:nonzero;stroke:none"
         d="m 2634.13,1983.55 c -0.01,-0.09 -0.2,-3.22 -0.2,-8.74 0.01,-15.55 1.47,-50.05 12.72,-89.29 11.24,-39.22 32.32,-83.3 71.75,-117.48 l 6.55,7.55 c -37.51,32.5 -57.8,74.69 -68.69,112.69 -10.89,37.96 -12.33,71.62 -12.33,86.53 0,2.65 0.05,4.7 0.09,6.09 0.05,1.38 0.09,2.04 0.09,2.05 l -9.98,0.6" /></g></g></svg>